<?xml version="1.0" encoding="utf-8"?>
<!-- Generator: Adobe Illustrator 26.0.1, SVG Export Plug-In . SVG Version: 6.00 Build 0)  -->
<svg version="1.1" xmlns="http://www.w3.org/2000/svg" xmlns:xlink="http://www.w3.org/1999/xlink" x="0px" y="0px"
	 viewBox="0 0 1122 1122" style="enable-background:new 0 0 1122 1122;" xml:space="preserve">
<style type="text/css">
	.st0{display:none;}
	.st1{display:inline;fill:#FFFFFF;}
	.st2{display:inline;opacity:0.09;}
	.st3{display:inline;opacity:0.07;}
	.st4{fill:#BCDAE8;}
	.st5{fill:#39281C;}
	.st6{fill:#AECCDC;}
	.st7{opacity:0.91;}
	.st8{opacity:0.57;}
	.st9{fill:#FFFFFF;}
	.st10{opacity:0.51;}
</style>
<g id="background" class="st0">
	<rect x="0" class="st1" width="1122" height="1122"/>
</g>
<g id="shadow" class="st0">
	<g class="st2">
		<path d="M1023.6,832.56c32.77,52.47-206.2,169.97-379.55,183.44c-112.16,8.72-278.6-5.17-294.87-41.11
			c-27.46-60.67,190.92-121.61,360.24-161.54C859.11,778.04,993.93,785.04,1023.6,832.56z"/>
	</g>
	<g class="st3">
		<path d="M338.46,948.13c7.22,10.04-39.21,45.14-81.71,48.84c-27.5,2.4-77.14-1.02-80.57-7.94c-5.81-11.67,45.74-32.02,87.64-40.86
			C300.87,940.35,331.92,939.03,338.46,948.13z"/>
	</g>
</g>
<g id="object">
	<g>
		<g>
			<path class="st4" d="M989.16,59.63c1.39-1.07,2.11-2.15,2.11-3.24C991.27,38.5,800.58,24,565.35,24S139.43,38.5,139.43,56.39
				c0,1.09,0.72,2.17,2.11,3.24C162.91,76,344.49,88.78,565.35,88.78C786.2,88.78,967.78,76,989.16,59.63z"/>
		</g>
		<g>
			<g>
				<g>
					<polygon class="st5" points="797.11,187.88 797.26,188.2 806.04,206.62 819.62,207.87 827.83,201.48 817.91,187.88 					"/>
				</g>
			</g>
			<g>
				<g>
					<polygon class="st5" points="730.81,191.88 730.99,192.22 741.42,211.67 756.15,212.34 764.7,205.02 753.29,190.83 					"/>
				</g>
			</g>
		</g>
		<g>
			<path class="st6" d="M989.16,59.63C967.78,76,786.2,88.78,565.35,88.78c-220.85,0-402.44-12.78-423.81-29.15h-3.38l109.07,1006.9
				c3.35,30.9,145.74,55.47,318.11,55.47s314.77-24.58,318.11-55.47L992.53,59.63H989.16z"/>
		</g>
		<g class="st7">
			<path class="st6" d="M989.16,59.63C967.78,76,786.2,88.78,565.35,88.78c-220.85,0-402.44-12.78-423.81-29.15h-3.38l109.07,1006.9
				c3.35,30.9,145.74,55.47,318.11,55.47s314.77-24.58,318.11-55.47L992.53,59.63H989.16z"/>
		</g>
		<g>
			<g class="st8">
				<path class="st9" d="M917.21,244.11c1.15-0.83,1.75-1.68,1.75-2.54c0-14.01-157.88-25.37-352.63-25.37
					s-352.63,11.36-352.63,25.37c0,0.86,0.6,1.7,1.75,2.54h-2.8l90.3,788.76c2.77,24.21,120.66,43.46,263.37,43.46
					c142.71,0,260.6-19.25,263.37-43.46l90.3-788.76H917.21z"/>
			</g>
			<g class="st10">
				<ellipse class="st9" cx="565.35" cy="239.51" rx="354.66" ry="22.98"/>
			</g>
		</g>
	</g>
</g>
</svg>
