<?xml version="1.0" encoding="utf-8"?>
<!-- Generator: Adobe Illustrator 26.0.1, SVG Export Plug-In . SVG Version: 6.00 Build 0)  -->
<svg version="1.1" id="Layer_1" xmlns="http://www.w3.org/2000/svg" xmlns:xlink="http://www.w3.org/1999/xlink" x="0px" y="0px"
	 viewBox="0 0 500 340" style="enable-background:new 0 0 500 340;" xml:space="preserve">
<style type="text/css">
	.st0{opacity:0.5;fill:#087B84;}
	.st1{opacity:0.5;fill:#036A6D;}
	.st2{fill:#DED1C0;}
	.st3{fill:#EDE3D9;}
	.st4{fill:#CCBCA8;}
	.st5{fill:#FFFFFF;}
	.st6{fill:#EA6363;}
	.st7{fill:#F98080;}
	.st8{fill:#729BDD;}
	.st9{fill:#6387CE;}
	.st10{fill:#D65655;}
	.st11{fill:#D65151;}
	.st12{fill:#E05959;}
	.st13{fill:#8C776F;}
	.st14{fill:#F7F0E8;}
	.st15{fill:#7AA8EA;}
	.st16{fill:#46373B;}
	.st17{fill:#432B1F;}
	.st18{fill:#B5A59C;}
	.st19{fill:#A39088;}
	.st20{fill:#FCA9A9;}
</style>
<g>
	<polygon class="st0" points="343.36,334.34 147.29,220.93 300.09,132.38 496.15,245.79 	"/>
	<polygon class="st1" points="411.83,287.59 362.09,316.42 333.02,299.97 382.78,271.12 	"/>
	<polygon class="st1" points="289.66,221.48 242.24,194.74 230.83,201.36 220.77,195.69 171.01,224.54 218.44,251.26 229.86,244.65 
		239.92,250.31 	"/>
	<polygon class="st1" points="444.6,231.75 381.67,268.21 334.24,241.49 397.18,205.01 	"/>
	<g>
		<polygon class="st2" points="294.99,212.75 239.57,244.75 239.57,103.7 294.99,71.7 		"/>
		<polygon class="st3" points="184.14,212.75 239.57,244.75 239.57,103.7 184.14,71.7 		"/>
		<polygon class="st4" points="285.84,218.42 272.96,225.02 272.96,83.14 285.84,75.57 		"/>
		<polygon class="st2" points="229.87,98.06 218.44,104.66 218.44,245.71 229.87,239.11 		"/>
		<polygon class="st3" points="179.45,82.15 179.45,223.2 218.44,245.71 218.44,104.66 		"/>
		<polygon class="st2" points="436.32,230.53 380.89,262.53 380.89,121.48 436.32,89.48 		"/>
		<polygon class="st3" points="294.99,212.75 380.89,262.53 380.89,121.48 294.99,71.7 		"/>
		<polygon class="st5" points="184.14,71.7 239.57,103.7 294.99,71.7 380.89,121.48 436.32,89.48 294.99,8.01 		"/>
		<polygon class="st5" points="179.45,82.15 218.44,104.66 229.87,98.06 191.38,75.88 		"/>
		<polygon class="st6" points="184.14,67.01 184.14,71.7 191.54,75.97 191.38,71.19 		"/>
		<polygon class="st7" points="179.45,77.46 218.44,99.97 229.87,93.37 191.38,71.19 		"/>
		<g>
			<polygon class="st5" points="372.67,125.94 340.78,107.53 340.78,125.8 372.67,144.21 			"/>
			<polygon class="st5" points="372.67,152.38 340.78,133.96 340.78,152.23 372.67,170.65 			"/>
			<polygon class="st5" points="372.67,178.12 340.78,159.71 340.78,177.98 372.67,196.39 			"/>
			<g>
				<polygon class="st8" points="342.03,109.89 342.03,124.66 350.26,129.42 350.26,114.65 				"/>
				<polygon class="st8" points="351.76,115.51 351.76,130.28 359.7,134.87 359.7,120.1 				"/>
				<polygon class="st8" points="370.99,126.61 361.2,120.96 361.2,135.73 370.99,141.38 				"/>
			</g>
			<g>
				<polygon class="st8" points="342.03,136.23 342.03,151 350.26,155.76 350.26,140.98 				"/>
				<polygon class="st8" points="351.76,141.85 351.76,156.62 359.7,161.21 359.7,146.44 				"/>
				<polygon class="st8" points="370.99,152.95 361.2,147.3 361.2,162.07 370.99,167.72 				"/>
			</g>
			<g>
				<polygon class="st8" points="342.03,162.24 342.03,177.01 350.26,181.76 350.26,166.99 				"/>
				<polygon class="st8" points="351.76,167.85 351.76,182.62 359.7,187.21 359.7,172.44 				"/>
				<polygon class="st8" points="370.99,178.96 361.2,173.3 361.2,188.07 370.99,193.73 				"/>
			</g>
		</g>
		<g>
			<polygon class="st5" points="214.89,112.09 183,93.68 183,111.95 214.89,130.36 			"/>
			<polygon class="st5" points="214.89,138.52 183,120.11 183,138.38 214.89,156.79 			"/>
			<polygon class="st5" points="214.89,164.27 183,145.86 183,164.13 214.89,182.54 			"/>
			<g>
				<polygon class="st8" points="184.25,96.04 184.25,110.81 192.49,115.56 192.49,100.79 				"/>
				<polygon class="st8" points="193.98,101.66 193.98,116.43 201.93,121.01 201.93,106.24 				"/>
				<polygon class="st8" points="213.21,112.76 203.42,107.11 203.42,121.88 213.21,127.53 				"/>
			</g>
			<g>
				<polygon class="st8" points="184.25,122.38 184.25,137.15 192.49,141.9 192.49,127.13 				"/>
				<polygon class="st8" points="193.98,127.99 193.98,142.76 201.93,147.35 201.93,132.58 				"/>
				<polygon class="st8" points="213.21,139.1 203.42,133.44 203.42,148.21 213.21,153.87 				"/>
			</g>
			<g>
				<polygon class="st8" points="184.25,148.38 184.25,163.15 192.49,167.91 192.49,153.14 				"/>
				<polygon class="st8" points="193.98,154 193.98,168.77 201.93,173.36 201.93,158.59 				"/>
				<polygon class="st8" points="213.21,165.1 203.42,159.45 203.42,174.22 213.21,179.87 				"/>
			</g>
		</g>
		<g>
			<polygon class="st5" points="214.89,190.15 183,171.74 183,190.01 214.89,208.42 			"/>
			<polygon class="st5" points="214.89,216.59 183,198.18 183,216.45 214.89,234.86 			"/>
			<g>
				<polygon class="st8" points="184.25,174.11 184.25,188.88 192.49,193.63 192.49,178.86 				"/>
				<polygon class="st8" points="193.98,179.72 193.98,194.49 201.93,199.08 201.93,184.31 				"/>
				<polygon class="st8" points="213.21,190.83 203.42,185.17 203.42,199.94 213.21,205.6 				"/>
			</g>
			<g>
				<polygon class="st8" points="184.25,200.45 184.25,215.22 192.49,219.97 192.49,205.2 				"/>
				<polygon class="st8" points="193.98,206.06 193.98,220.83 201.93,225.42 201.93,210.65 				"/>
				<polygon class="st8" points="213.21,217.17 203.42,211.51 203.42,226.28 213.21,231.94 				"/>
			</g>
		</g>
		<g>
			<polygon class="st8" points="311.03,101.47 308.59,100.06 308.59,91.1 311.03,92.51 			"/>
			<polygon class="st8" points="306.45,95.97 306.45,92.72 313.17,96.6 313.17,99.85 			"/>
		</g>
		<g>
			<g>
				<path class="st8" d="M318.38,97.51c-1.34-0.77-2.01,0.12-2.01,2.25c0,2.22,0.55,3.92,2.03,4.73c0.3,0.17,0.57,0.29,0.78,0.32
					c0.19,0.03,0.22-0.07,0.22-0.34v-1.13l1.08,0.73v2.45c-0.58,0.07-1.43-0.24-2.1-0.63c-2.16-1.25-3.34-3.54-3.34-6.77
					c0-3.7,1.7-3.95,3.34-3c0.63,0.36,1.36,0.97,2,1.74v2.41l-1.08-0.53v-1.11c0-0.27-0.03-0.4-0.22-0.6
					C318.86,97.82,318.59,97.64,318.38,97.51z"/>
			</g>
			<g>
				<path class="st8" d="M322.01,99.63l-0.61-0.39v-1.2l2.57,1.49v1.15l-0.35-0.16c-0.18-0.08-0.31-0.06-0.31,0.27v6.53l0.61,0.39
					v1.2l-2.57-1.49v-1.15l0.35,0.16c0.2,0.09,0.31,0.06,0.31-0.29V99.63z"/>
			</g>
			<g>
				<path class="st8" d="M326.6,102.43l-0.83-0.48c-0.22-0.13-0.24,0.06-0.24,0.3v0.67l-1.08-0.73v-2.41l5.56,3.21v2.41l-1.08-0.53
					v-0.67c0-0.27-0.02-0.45-0.31-0.62l-0.72-0.42v6.77l0.84,0.53v1.2l-3-1.73v-1.15l0.56,0.28c0.2,0.09,0.31,0.06,0.31-0.22V102.43
					z"/>
			</g>
			<g>
				<path class="st8" d="M332.62,110.33l-1.81-5.62l-0.5-0.33v-1.2l2.6,1.5v1.15l-0.32-0.14c-0.23-0.11-0.3,0.08-0.18,0.45l0.9,2.99
					l0.04,0.02l1.16-2.28l-0.53-0.36v-1.2l2.29,1.32v1.15l-0.32-0.14c-0.17-0.07-0.26,0.02-0.36,0.22l-1.67,3.25v2.35l0.83,0.52v1.2
					l-3-1.73v-1.15l0.56,0.28c0.2,0.1,0.31,0.06,0.31-0.22V110.33z"/>
			</g>
			<g>
				<path class="st8" d="M302.12,103.62l-2.44-1.41v2.32l0.5,0.32v0.98l-2.09-1.2v-0.93l0.28,0.13c0.15,0.06,0.25,0.05,0.25-0.18
					v-5.34l-0.49-0.32v-0.98l2.09,1.2v0.93l-0.28-0.13c-0.16-0.07-0.26-0.06-0.26,0.23v1.78l2.44,1.41v-2.11l-0.49-0.32v-0.98
					l2.09,1.2v0.93l-0.28-0.13c-0.15-0.06-0.25-0.05-0.25,0.22v5.29l0.49,0.32v0.98l-2.09-1.2v-0.93l0.28,0.13
					c0.16,0.07,0.25,0.05,0.25-0.24V103.62z"/>
			</g>
			<g>
				<path class="st8" d="M306.8,109.81c-1.53-0.89-2.5-2.78-2.5-5.39c0-2.94,1.39-3.17,2.59-2.48c1.28,0.74,2.44,2.46,2.44,5.38
					C309.33,109.95,308.31,110.68,306.8,109.81z M306.86,108.68c1.09,0.63,1.41-0.57,1.41-1.95c0-1.17-0.23-2.96-1.42-3.65
					c-1.1-0.64-1.46,0.52-1.46,1.89C305.38,106.29,305.62,107.97,306.86,108.68z"/>
			</g>
			<g>
				<path class="st8" d="M312.71,110.93c0-0.72-0.49-1.22-1.1-1.78c-0.85-0.8-1.65-1.72-1.65-3.19c0-1.4,0.81-1.78,2-1.1
					c0.57,0.33,1.1,0.79,1.62,1.41v1.72l-0.88-0.43v-0.67c0-0.22-0.03-0.33-0.18-0.48c-0.16-0.16-0.39-0.32-0.56-0.42
					c-0.51-0.29-0.91-0.25-0.91,0.47c0,0.71,0.5,1.2,1.15,1.83c0.78,0.79,1.61,1.74,1.61,3.22c0,1.52-0.9,1.83-2.09,1.14
					c-0.69-0.4-1.22-0.86-1.74-1.48v-1.82l0.88,0.43v0.7c0,0.22,0.02,0.33,0.18,0.48c0.16,0.16,0.39,0.33,0.62,0.46
					C312.24,111.76,312.71,111.79,312.71,110.93z"/>
			</g>
			<g>
				<path class="st8" d="M314.37,113.1l0.28,0.13c0.15,0.06,0.25,0.05,0.25-0.18v-5.34l-0.49-0.32v-0.98l2.46,1.42
					c1.27,0.73,2.04,1.98,2.04,3.52c0,1.75-0.93,2.08-2.23,1.33l-0.73-0.42v1.67l0.83,0.51v0.98l-2.41-1.39V113.1z M316.58,111.51
					c0.75,0.43,1.26,0.38,1.26-0.64c0-1.18-0.51-1.66-1.35-2.15l-0.53-0.3v2.73L316.58,111.51z"/>
			</g>
			<g>
				<path class="st8" d="M319.99,110.65l-0.49-0.32v-0.98l2.09,1.2v0.93l-0.28-0.13c-0.15-0.06-0.25-0.05-0.25,0.22v5.29l0.49,0.32
					v0.98l-2.09-1.2v-0.93l0.28,0.13c0.16,0.07,0.25,0.05,0.25-0.23V110.65z"/>
			</g>
			<g>
				<path class="st8" d="M323.71,112.92l-0.67-0.39c-0.18-0.11-0.2,0.05-0.2,0.24v0.54l-0.88-0.59v-1.95l4.51,2.6v1.95l-0.88-0.43
					v-0.54c0-0.22-0.02-0.37-0.25-0.5l-0.59-0.34v5.49l0.68,0.43v0.98l-2.43-1.4v-0.93l0.46,0.23c0.16,0.07,0.25,0.05,0.25-0.18
					V112.92z"/>
			</g>
			<g>
				<path class="st8" d="M327.96,115.24l-0.54-0.38v-0.93l1.97,1.14l1.76,7.64l0.01,0l0.49,0.32v0.98l-2.22-1.28v-0.93l0.33,0.15
					c0.18,0.08,0.27,0.06,0.21-0.22l-0.18-0.82l-2.02-1.16l-0.26,0.86l0.52,0.33v0.98l-1.99-1.15v-0.93l0.28,0.13
					c0.15,0.06,0.2,0.01,0.26-0.17L327.96,115.24z M327.97,118.8l1.6,0.93l-0.78-3.72l-0.03-0.02L327.97,118.8z"/>
			</g>
			<g>
				<path class="st8" d="M331.97,124.19v-0.93l0.28,0.13c0.15,0.06,0.25,0.05,0.25-0.18v-5.34l-0.49-0.32v-0.98l2.08,1.2v0.93
					l-0.28-0.13c-0.15-0.06-0.25-0.05-0.25,0.22v5.12l1.43,0.83c0.18,0.1,0.2-0.03,0.2-0.25v-0.8l0.88,0.59v2.27L331.97,124.19z"/>
			</g>
		</g>
		<polygon class="st8" points="298.22,109.05 298.22,111.68 335.58,133.73 335.58,131.09 		"/>
		<polygon class="st8" points="298.22,114.65 298.22,117.28 335.58,139.33 335.58,136.69 		"/>
		<g>
			<polygon class="st5" points="284.7,88.21 284.7,105.7 274.34,111.7 274.34,94.21 			"/>
			<polygon class="st8" points="283.63,90.19 283.63,104.96 275.4,109.71 275.4,94.94 			"/>
		</g>
		<g>
			<polygon class="st5" points="284.7,115.65 284.7,133.14 274.34,139.14 274.34,121.65 			"/>
			<polygon class="st8" points="283.52,117.63 283.52,132.4 275.29,137.15 275.29,122.38 			"/>
		</g>
		<g>
			<polygon class="st5" points="284.7,142.95 284.7,160.43 274.34,166.43 274.34,148.94 			"/>
			<polygon class="st8" points="283.52,144.93 283.52,159.7 275.29,164.45 275.29,149.68 			"/>
		</g>
		<polygon class="st4" points="262.7,231.39 249.82,238.83 249.82,96.5 262.7,88.94 		"/>
		<polygon class="st4" points="427.9,235.36 415.02,242.79 415.02,100.47 427.9,92.91 		"/>
		<g>
			<polygon class="st5" points="261.56,101.62 261.56,119.11 251.2,125.11 251.2,107.62 			"/>
			<polygon class="st8" points="260.49,103.61 260.49,118.38 252.26,123.13 252.26,108.36 			"/>
		</g>
		<g>
			<polygon class="st5" points="261.56,129.06 261.56,146.55 251.2,152.55 251.2,135.06 			"/>
			<polygon class="st8" points="260.38,131.05 260.38,145.82 252.15,150.57 252.15,135.8 			"/>
		</g>
		<g>
			<polygon class="st5" points="261.56,156.36 261.56,173.85 251.2,179.85 251.2,162.36 			"/>
			<polygon class="st8" points="260.38,158.34 260.38,173.11 252.15,177.86 252.15,163.09 			"/>
		</g>
		<g>
			<polygon class="st5" points="426.76,106 426.76,123.49 416.4,129.49 416.4,112 			"/>
			<polygon class="st9" points="425.69,107.98 425.69,122.75 417.46,127.51 417.46,112.74 			"/>
		</g>
		<g>
			<polygon class="st5" points="426.76,133.44 426.76,150.93 416.4,156.93 416.4,139.44 			"/>
			<polygon class="st9" points="425.58,135.42 425.58,150.19 417.35,154.95 417.35,140.18 			"/>
		</g>
		<g>
			<polygon class="st5" points="426.76,160.74 426.76,178.23 416.4,184.22 416.4,166.74 			"/>
			<polygon class="st9" points="425.58,162.72 425.58,177.49 417.35,182.24 417.35,167.47 			"/>
		</g>
		<polygon class="st4" points="404.76,248.65 391.88,256.09 391.88,113.76 404.76,106.2 		"/>
		<g>
			<polygon class="st5" points="403.62,119.41 403.62,136.9 393.26,142.9 393.26,125.41 			"/>
			<polygon class="st9" points="402.55,121.4 402.55,136.17 394.32,140.92 394.32,126.15 			"/>
		</g>
		<g>
			<polygon class="st5" points="403.62,146.85 403.62,164.34 393.26,170.34 393.26,152.85 			"/>
			<polygon class="st9" points="402.44,148.84 402.44,163.61 394.21,168.36 394.21,153.59 			"/>
		</g>
		<g>
			<polygon class="st5" points="403.62,174.15 403.62,191.64 393.26,197.64 393.26,180.15 			"/>
			<polygon class="st9" points="402.44,176.13 402.44,190.9 394.21,195.65 394.21,180.88 			"/>
		</g>
		<g>
			<polygon class="st5" points="426.76,187.61 426.76,205.1 416.4,211.1 416.4,193.61 			"/>
			<polygon class="st9" points="425.58,189.59 425.58,204.36 417.35,209.11 417.35,194.34 			"/>
		</g>
		<g>
			<polygon class="st5" points="403.62,201.02 403.62,218.51 393.26,224.51 393.26,207.02 			"/>
			<polygon class="st9" points="402.44,203.01 402.44,217.78 394.21,222.53 394.21,207.76 			"/>
		</g>
		<g>
			<polygon class="st5" points="426.76,213.36 426.76,230.85 416.4,236.84 416.4,219.36 			"/>
			<polygon class="st9" points="425.58,215.34 425.58,230.11 417.35,234.86 417.35,220.09 			"/>
		</g>
		<g>
			<polygon class="st5" points="403.62,226.77 403.62,244.26 393.26,250.26 393.26,232.77 			"/>
			<polygon class="st9" points="402.44,228.75 402.44,243.52 394.21,248.28 394.21,233.51 			"/>
		</g>
		<g>
			<polygon class="st2" points="329.22,292.42 325.47,294.6 325.47,245.98 329.22,243.61 			"/>
			<polygon class="st3" points="321.72,292.57 325.47,294.6 325.47,245.98 321.72,243.61 			"/>
		</g>
		<g>
			<polygon class="st2" points="281.87,265.12 278.12,267.3 278.12,218.67 281.87,216.31 			"/>
			<polygon class="st3" points="274.38,265.27 278.12,267.3 278.12,218.67 274.38,216.31 			"/>
			<polygon class="st8" points="372.67,226.02 341.25,207.6 341.25,239.18 372.67,257.6 			"/>
			<polygon class="st9" points="369.98,227.66 338.56,209.24 338.56,238.3 369.98,256.72 			"/>
		</g>
		<g>
			<polygon class="st5" points="294.99,163.97 239.57,196.09 325.47,245.34 380.89,213.24 			"/>
			<g>
				<polygon class="st4" points="371.94,214.39 373.97,213.21 295.36,168 247.22,195.89 249.25,197.06 295.36,170.34 				"/>
				<polygon class="st2" points="371.94,214.39 295.36,170.34 249.25,197.06 325.84,241.1 				"/>
			</g>
			<polygon class="st2" points="325.47,250.48 325.47,245.34 380.89,213.24 380.89,218.38 			"/>
			<polygon class="st3" points="325.47,245.34 325.47,250.48 239.57,201.22 239.57,196.09 			"/>
		</g>
		<g>
			<polygon class="st10" points="318.91,234.77 316.9,235.94 316.9,248.84 318.91,247.67 			"/>
			<polygon class="st6" points="244.6,192.28 242.58,193.45 316.9,235.94 318.91,234.77 			"/>
			<polygon class="st7" points="316.9,235.94 242.58,193.45 242.58,206.35 316.9,248.84 			"/>
		</g>
		<g>
			<path class="st5" d="M255.12,204.32c-0.95-0.55-1.42,0.08-1.42,1.59c0,1.57,0.39,2.77,1.43,3.34c0.21,0.12,0.41,0.2,0.55,0.23
				c0.14,0.02,0.16-0.05,0.16-0.24v-0.8l0.77,0.51v1.73c-0.41,0.05-1.01-0.17-1.49-0.45c-1.52-0.88-2.36-2.5-2.36-4.78
				c0-2.61,1.2-2.79,2.36-2.12c0.44,0.26,0.96,0.69,1.41,1.23v1.7l-0.77-0.37v-0.78c0-0.19-0.02-0.28-0.16-0.42
				C255.46,204.54,255.27,204.41,255.12,204.32z"/>
			<path class="st5" d="M257.68,205.81l-0.43-0.28v-0.85l1.82,1.05v0.81l-0.25-0.11c-0.13-0.05-0.22-0.05-0.22,0.19v4.61l0.43,0.28
				v0.85l-1.82-1.05v-0.81l0.25,0.11c0.14,0.06,0.22,0.05,0.22-0.21V205.81z"/>
			<path class="st5" d="M260.92,207.79l-0.59-0.34c-0.16-0.09-0.17,0.04-0.17,0.21v0.47l-0.77-0.51v-1.7l3.93,2.27v1.7l-0.77-0.37
				v-0.47c0-0.19-0.01-0.32-0.22-0.44l-0.51-0.29v4.78l0.59,0.37v0.85l-2.12-1.22v-0.81l0.4,0.2c0.14,0.06,0.22,0.05,0.22-0.15
				V207.79z"/>
			<path class="st5" d="M265.18,213.37l-1.28-3.97l-0.35-0.23v-0.85l1.83,1.06v0.81l-0.23-0.1c-0.16-0.08-0.21,0.06-0.13,0.32
				l0.64,2.11l0.03,0.02l0.82-1.61l-0.37-0.26v-0.85l1.61,0.93v0.81l-0.23-0.1c-0.12-0.05-0.18,0.02-0.25,0.15l-1.18,2.29v1.66
				l0.59,0.37v0.85l-2.12-1.22v-0.81l0.4,0.2c0.14,0.07,0.22,0.04,0.22-0.15V213.37z"/>
			<path class="st5" d="M273.04,217.55l-2.13-1.23v2.02l0.44,0.28v0.85l-1.82-1.05v-0.81l0.25,0.11c0.13,0.05,0.22,0.05,0.22-0.15
				v-4.65l-0.43-0.28v-0.85l1.82,1.05v0.81l-0.25-0.11c-0.14-0.06-0.23-0.05-0.23,0.2v1.55l2.13,1.23v-1.84l-0.43-0.28v-0.85
				l1.82,1.05v0.81l-0.25-0.11c-0.13-0.05-0.22-0.05-0.22,0.19v4.61l0.43,0.28v0.85l-1.82-1.05v-0.81l0.25,0.11
				c0.14,0.06,0.22,0.04,0.22-0.2V217.55z"/>
			<path class="st5" d="M277.12,222.94c-1.34-0.77-2.18-2.42-2.18-4.7c0-2.56,1.21-2.76,2.26-2.16c1.12,0.65,2.13,2.15,2.13,4.69
				C279.33,223.06,278.43,223.7,277.12,222.94z M277.17,221.96c0.95,0.55,1.22-0.49,1.22-1.7c0-1.02-0.2-2.58-1.24-3.18
				c-0.96-0.56-1.28,0.45-1.28,1.64C275.88,219.87,276.09,221.33,277.17,221.96z"/>
			<path class="st5" d="M282.26,223.92c0-0.63-0.43-1.06-0.95-1.55c-0.74-0.7-1.44-1.5-1.44-2.78c0-1.22,0.71-1.55,1.74-0.96
				c0.5,0.29,0.96,0.69,1.41,1.23v1.5l-0.77-0.37v-0.58c0-0.19-0.02-0.28-0.16-0.42c-0.14-0.14-0.34-0.27-0.49-0.36
				c-0.44-0.26-0.79-0.21-0.79,0.41c0,0.62,0.44,1.04,1,1.6c0.68,0.68,1.4,1.51,1.4,2.8c0,1.32-0.78,1.59-1.82,0.99
				c-0.6-0.35-1.07-0.75-1.52-1.29v-1.58l0.77,0.37v0.61c0,0.19,0.02,0.28,0.16,0.42c0.14,0.14,0.34,0.28,0.54,0.4
				C281.86,224.64,282.26,224.67,282.26,223.92z"/>
			<path class="st5" d="M283.71,225.8l0.25,0.11c0.13,0.05,0.22,0.05,0.22-0.15v-4.65l-0.43-0.28v-0.85l2.15,1.24
				c1.1,0.64,1.78,1.73,1.78,3.07c0,1.52-0.81,1.81-1.95,1.16l-0.64-0.37v1.45l0.72,0.45v0.85l-2.1-1.21V225.8z M285.63,224.42
				c0.65,0.38,1.1,0.33,1.1-0.56c0-1.03-0.44-1.45-1.18-1.87l-0.46-0.27v2.38L285.63,224.42z"/>
			<path class="st5" d="M288.61,223.67l-0.43-0.28v-0.85l1.82,1.05v0.81l-0.25-0.11c-0.13-0.05-0.22-0.05-0.22,0.19v4.61l0.43,0.28
				v0.85l-1.82-1.05v-0.81l0.25,0.11c0.14,0.06,0.22,0.05,0.22-0.21V223.67z"/>
			<path class="st5" d="M291.84,225.65l-0.59-0.34c-0.16-0.09-0.17,0.04-0.17,0.21v0.47l-0.77-0.51v-1.7l3.93,2.27v1.7l-0.77-0.37
				v-0.47c0-0.19-0.01-0.32-0.22-0.44l-0.51-0.3v4.78l0.59,0.37v0.85l-2.12-1.22v-0.81l0.4,0.2c0.14,0.06,0.22,0.05,0.22-0.15
				V225.65z"/>
			<path class="st5" d="M295.55,227.67l-0.47-0.33v-0.81l1.72,0.99l1.53,6.66l0.01,0l0.43,0.28v0.85l-1.94-1.12v-0.81l0.28,0.13
				c0.16,0.07,0.23,0.06,0.18-0.19l-0.16-0.71l-1.76-1.02l-0.23,0.75l0.45,0.29v0.85l-1.74-1v-0.81l0.25,0.11
				c0.13,0.05,0.17,0.01,0.23-0.15L295.55,227.67z M295.56,230.77l1.4,0.81l-0.68-3.24l-0.02-0.01L295.56,230.77z"/>
			<path class="st5" d="M299.04,235.47v-0.81l0.25,0.11c0.13,0.05,0.22,0.05,0.22-0.15v-4.65l-0.43-0.28v-0.85l1.81,1.05v0.81
				l-0.25-0.11c-0.13-0.05-0.22-0.05-0.22,0.19v4.46l1.25,0.72c0.16,0.09,0.17-0.03,0.17-0.22v-0.7l0.77,0.51v1.98L299.04,235.47z"
				/>
		</g>
		<g>
			<polygon class="st7" points="184.14,67.01 239.57,99.01 294.99,67.01 380.89,116.8 436.32,84.8 295.47,3.05 			"/>
			<g>
				<polygon class="st11" points="426.55,86.49 429.82,84.6 295.53,6.98 191.82,66.56 195.3,68.59 295.74,10.88 				"/>
				<polygon class="st6" points="294.99,62.39 381.54,112.54 426.55,86.49 295.74,10.88 195.3,68.59 239.57,94.32 				"/>
			</g>
			<polygon class="st6" points="229.87,93.37 229.87,98.27 239.57,103.7 239.57,99.01 			"/>
			<polygon class="st6" points="179.45,82.15 179.45,77.46 218.44,99.97 218.44,104.66 			"/>
			<polygon class="st6" points="294.99,71.7 294.99,67.01 380.89,116.8 380.89,121.48 			"/>
			<polygon class="st12" points="294.99,71.7 294.99,67.01 239.57,99.01 239.57,103.7 			"/>
			<polygon class="st12" points="436.32,89.58 436.32,84.8 380.89,116.8 380.89,121.58 			"/>
			<polygon class="st12" points="218.44,99.97 218.44,104.66 229.87,98.06 229.87,93.37 			"/>
		</g>
		<polygon class="st12" points="295.53,6.98 191.82,66.56 195.3,68.59 295.53,11 		"/>
	</g>
	<g>
		<path class="st13" d="M403.98,283.43c0,0,0.25,1.05,0.86,1.2c0.61,0.14,1.37-0.41,1.37-0.41s-0.64-2.55-0.76-2.55
			C405.34,281.66,403.3,281.64,403.98,283.43z"/>
		<path class="st13" d="M372.17,301.71c0,0,0.25,1.05,0.86,1.2c0.61,0.14,1.37-0.3,1.37-0.3s-0.64-2.67-0.76-2.67
			C373.53,299.94,371.49,299.92,372.17,301.71z"/>
		<g>
			<g>
				<path class="st4" d="M344.44,275.8l-3.66-2.11c-0.48-0.28-0.88-1.03-0.88-1.67v-1.81c0-0.64,0.39-0.94,0.88-0.66l3.66,2.11
					c0.48,0.28,0.88,1.03,0.88,1.67v1.81C345.32,275.78,344.92,276.08,344.44,275.8z"/>
			</g>
			<g>
				<path class="st4" d="M339.6,269.83c0,0,0.5-0.41,0.74-0.39c0.24,0.02-0.3,0.78-0.3,0.78L339.6,269.83z"/>
			</g>
			<g>
				<path class="st4" d="M344.28,276.18c0,0,0.65-0.1,0.82-0.41c0.17-0.31,0.05-0.65,0.05-0.65S344.26,275.54,344.28,276.18z"/>
			</g>
			<g>
				<path class="st2" d="M343.89,276.08l-3.66-2.11c-0.48-0.28-0.88-1.03-0.88-1.67v-1.81c0-0.64,0.39-0.94,0.88-0.66l3.66,2.11
					c0.48,0.28,0.88,1.03,0.88,1.67v1.81C344.76,276.06,344.37,276.36,343.89,276.08z"/>
			</g>
		</g>
		<g>
			<path class="st2" d="M348.73,282.52c-0.04,0-0.08-0.01-0.11-0.03c-0.15-0.08-3.71-1.87-5.21-2.98c-1.16-0.86-1.13-2.29-1.09-3.79
				c0.01-0.28,0.01-0.58,0.01-0.88c0-0.14,0.11-0.25,0.25-0.25c0.14,0,0.25,0.11,0.25,0.25c0,0.3-0.01,0.6-0.01,0.89
				c-0.04,1.49-0.07,2.67,0.89,3.38c1.46,1.09,5.1,2.91,5.14,2.93c0.12,0.06,0.17,0.21,0.11,0.33
				C348.91,282.47,348.82,282.52,348.73,282.52z"/>
		</g>
		<path class="st3" d="M389.34,240.77l-37.21,21.35c-1.51,0.87-2.64,2.28-3.15,3.94l-4.1,12.86l-6.46,8.65
			c-0.58,0.89-0.89,1.93-0.89,2.99v4.87c0,0.57,0.16,1.16,0.28,1.3l52.45-30.17V241.3C390.25,240.83,389.75,240.54,389.34,240.77z"
			/>
		<path class="st14" d="M389.88,240.74l21.1,12.12c0,0-0.66,0.35-0.73,0.35c-0.07,0-20.83-12.26-20.83-12.26L389.88,240.74z"/>
		<path class="st3" d="M359.07,308.26l23.33-36.1l-43.85,16.16l-0.75,8.41c0.16,0.26,0.42,0.48,0.87,0.82
			c0,0,13.55,8.02,18.19,10.46C357.96,308.58,358.7,308.36,359.07,308.26z"/>
		<path class="st14" d="M350.32,263.63c0,0,0.51-0.71,1.81-1.5c2.2,1.26,21.06,12.11,21.06,12.11l-1.81,1.54L350.32,263.63z"/>
		<polygon class="st5" points="389.34,240.77 410.41,252.88 373.2,274.23 352.13,262.12 		"/>
		<path class="st14" d="M338.41,287.57c0,0-0.4,0.72-0.51,1.01c-0.2,0.53-0.33,1.26-0.33,1.26l21.22,12.22l1.17-2.97L338.41,287.57z
			"/>
		<path class="st2" d="M410.41,252.88l-37.21,21.35c-1.51,0.87-2.64,2.28-3.15,3.94l-4.1,12.86l-6.46,8.65
			c-0.58,0.89-0.89,1.93-0.89,2.99v5.7c1.38-0.31,2.65-0.91,3.47-1.36c10.77-6.03,39.07-22.43,47.11-27.09
			c1.34-0.78,2.15-0.54,2.15-2.09v-24.43C411.32,252.94,410.81,252.65,410.41,252.88z"/>
		<g>
			<path class="st8" d="M349.01,272.98c-0.43,1.34-2.86,7.98-2.86,7.98s-0.35-0.15-0.88-0.38c0.11,0.61,0.47,1.16,1.03,1.49
				l15.99,9.36c1.19,0.7,2.72,0.11,3.15-1.2l3.29-10.2c-5.13-2.9-13.09-7.41-15.02-8.51C350.82,269.86,349.44,271.64,349.01,272.98z
				"/>
			<path class="st15" d="M367.97,276.85l-16.06-9.21c-1.19-0.68-2.71-0.09-3.13,1.21l-3.43,10.7c-0.11,0.34-0.13,0.7-0.07,1.04
				c0.53,0.23,0.88,0.38,0.88,0.38s2.43-6.63,2.86-7.98c0.43-1.34,1.81-3.12,4.71-1.47c1.93,1.1,9.89,5.61,15.02,8.51l0.21-0.65
				C369.26,278.41,368.85,277.35,367.97,276.85z"/>
		</g>
		<g>
			<path class="st9" d="M373.75,276.05c-1.3,0.75-2.27,1.96-2.72,3.39l-2.61,8.34c-0.36,1.14,0.87,2.12,1.91,1.52l4.21-2.44
				c1.99-1.15,3.21-3.28,3.21-5.57v-5.9c0-0.73-0.79-1.19-1.42-0.82L373.75,276.05z"/>
			<path class="st9" d="M380.29,274.2v6.82c0,1.12,1.21,1.81,2.18,1.25l23.84-13.81c0.77-0.44,1.42-1.06,1.9-1.8l1.65-2.53
				c0.36-0.54,0.54-1.18,0.54-1.83v-5.09c0-1-1.08-1.62-1.94-1.12l-26.52,15.26C380.92,271.93,380.29,273.02,380.29,274.2z"/>
		</g>
		<polygon class="st5" points="344.88,278.92 338.41,287.57 359.42,299.76 365.94,291.03 		"/>
		<path class="st16" d="M341.88,293.84c0,0-0.49,3.33,1.95,4.72c2.86,1.62,5.57,3.39,7.28,4.14c2.54,1.11,3.8-1.38,3.8-1.38
			L341.88,293.84z"/>
		<polygon class="st2" points="345.3,280.46 344.17,281.92 349.66,285.12 350.76,283.68 		"/>
		<polygon class="st2" points="358.1,287.82 356.96,289.28 362.45,292.48 363.55,291.04 		"/>
		<path class="st5" d="M353.72,304.22c0,0,1.68-2.12,2.32-2.06c0.64,0.06,2.55,1.22,2.55,1.22v3.71L353.72,304.22z"/>
		<path class="st5" d="M337.53,294.91l3.72,2.15c0,0-0.14-2.09-0.23-2.85c-0.09-0.77-0.43-1.13-1.26-1.59
			c-0.64-0.35-2.23-1.32-2.23-1.32V294.91z"/>
		<path class="st5" d="M348.51,299.5c0,0.71-0.43,1.03-0.96,0.72c-0.53-0.31-0.96-1.12-0.96-1.83c0-0.71,0.43-1.03,0.96-0.72
			C348.08,297.97,348.51,298.79,348.51,299.5z"/>
		<path class="st13" d="M364.64,305.61c0.21-3.04,2.14-6.15,4.42-7.07c1.89-0.76,3.41,0.31,3.93,2.32
			C371.94,301.46,365.16,305.17,364.64,305.61z"/>
		<g>
			<path class="st17" d="M371.64,305.61c0.39-0.88,0.62-1.85,0.65-2.79c0.07-2.56-1.45-4-3.38-3.22c-1.92,0.77-3.54,3.46-3.61,6.02
				H371.64z"/>
			<path class="st17" d="M370.37,301.84c0.05-1.75-1.23,1.25-3.74,2.57c-1.09,0.57-2.18,1.31-3.06,1.81
				c0.24,0.89,0.72,1.42,1.38,1.7c0.1,0.04,2.2,0.97,2.2,0.97l1.19-0.8l-1.31-0.34C368.84,306.83,370.3,304.27,370.37,301.84z"/>
			<path class="st16" d="M372.61,302.82c-0.07,2.56-1.68,5.26-3.61,6.04c-1.93,0.78-3.44-0.67-3.38-3.22
				c0.07-2.56,1.68-5.26,3.61-6.04C371.16,298.81,372.67,300.26,372.61,302.82z"/>
			<path class="st4" d="M371.35,303.32c-0.04,1.64-1.08,3.37-2.31,3.87c-1.24,0.5-2.2-0.43-2.16-2.06c0.04-1.64,1.08-3.37,2.31-3.87
				C370.42,300.76,371.39,301.68,371.35,303.32z"/>
			<path class="st5" d="M370.77,303.55c-0.03,1.22-0.8,2.5-1.72,2.87c-0.92,0.37-1.64-0.32-1.61-1.53c0.03-1.22,0.8-2.5,1.72-2.87
				C370.09,301.65,370.81,302.34,370.77,303.55z"/>
		</g>
		<path class="st13" d="M396.33,287.33c0.21-3.04,2.14-6.15,4.42-7.07c1.89-0.76,3.51,0.28,4.02,2.29
			C403.73,283.14,396.85,286.89,396.33,287.33z"/>
		<g>
			<path class="st17" d="M403.33,287.33c0.39-0.88,0.62-1.85,0.65-2.79c0.07-2.56-1.45-4-3.38-3.22c-1.92,0.77-3.54,3.46-3.61,6.02
				H403.33z"/>
			<path class="st17" d="M402.06,283.56c0.05-1.75-1.23,1.25-3.74,2.57c-1.09,0.57-2.18,1.31-3.06,1.81
				c0.24,0.89,0.72,1.42,1.38,1.7c0.1,0.04,2.2,0.97,2.2,0.97l1.19-0.8l-1.31-0.34C400.53,288.55,402,285.99,402.06,283.56z"/>
			<path class="st16" d="M404.3,284.54c-0.07,2.56-1.68,5.26-3.61,6.04c-1.93,0.78-3.44-0.67-3.38-3.22
				c0.07-2.56,1.68-5.26,3.61-6.04C402.85,280.54,404.36,281.98,404.3,284.54z"/>
			<path class="st4" d="M403.04,285.04c-0.04,1.64-1.08,3.37-2.31,3.87c-1.24,0.5-2.2-0.43-2.16-2.06c0.04-1.64,1.08-3.37,2.31-3.87
				C402.12,282.48,403.08,283.4,403.04,285.04z"/>
			<path class="st5" d="M402.47,285.27c-0.03,1.22-0.8,2.5-1.72,2.87c-0.92,0.37-1.64-0.32-1.61-1.53c0.03-1.22,0.8-2.5,1.72-2.87
				C401.78,283.37,402.5,284.06,402.47,285.27z"/>
		</g>
		<g>
			<path class="st12" d="M362.81,301.62c0,0,1.08-6.21,6.3-9.03c9.25-4.99,29.22-17.06,37.39-21.95c2.82-1.69,2.55,3.91,2.55,3.91
				L362.81,301.62z"/>
		</g>
		<g>
			<path class="st18" d="M358.59,308.01l-21.06-12.22c0,0-0.89-0.21-0.9,1.78c-0.01,1.93,0.61,2.04,1.18,2.37
				c3.79,2.2,19.07,11.07,19.92,11.49c0.33,0.16,0.72,0.19,1.36-0.06c0-0.74,0-1.85,0-2.31
				C359.09,308.34,358.59,308.01,358.59,308.01z"/>
			<path class="st19" d="M364.13,308.51c0.81-0.59,0.63-3.89,0.63-3.89l-6.18,3.38c0,0,0.5,0.34,0.5,1.06c0,0.46,0,1.57,0,2.31
				c0.18-0.07,0.38-0.16,0.61-0.28C360.68,310.58,363.83,308.73,364.13,308.51z"/>
		</g>
		<polygon class="st14" points="342.02,299.37 342.02,301.61 352.91,307.97 352.91,305.65 		"/>
		<g>
			<path class="st4" d="M373.15,292.83l-3.66-2.11c-0.48-0.28-0.88-1.03-0.88-1.67v-1.81c0-0.64,0.39-0.94,0.88-0.66l3.66,2.11
				c0.48,0.28,0.88,1.03,0.88,1.67v1.81C374.03,292.81,373.63,293.11,373.15,292.83z"/>
			<path class="st4" d="M368.31,286.86c0,0,0.5-0.41,0.74-0.39c0.24,0.02-0.3,0.78-0.3,0.78L368.31,286.86z"/>
			<path class="st4" d="M372.99,293.21c0,0,0.65-0.1,0.82-0.41c0.17-0.31,0.05-0.65,0.05-0.65S372.97,292.57,372.99,293.21z"/>
			<path class="st5" d="M372.6,293.11l-3.66-2.11c-0.48-0.28-0.88-1.03-0.88-1.67v-1.81c0-0.64,0.39-0.94,0.88-0.66l3.66,2.11
				c0.48,0.28,0.88,1.03,0.88,1.67v1.81C373.48,293.09,373.08,293.39,372.6,293.11z"/>
		</g>
		<g>
			<path class="st5" d="M369.64,294.41c-0.38,0-0.79-0.2-1.16-0.41l-2.51-1.45c-0.18-0.1-0.24-0.33-0.13-0.5
				c0.1-0.18,0.33-0.24,0.5-0.13l2.51,1.45c0.58,0.33,0.8,0.34,0.89,0.29c0.16-0.09,0.41-0.58,0.35-2.78
				c-0.01-0.2,0.15-0.37,0.36-0.38c0,0,0.01,0,0.01,0c0.2,0,0.36,0.16,0.37,0.36c0.07,2.13-0.13,3.09-0.71,3.43
				C369.97,294.38,369.81,294.41,369.64,294.41z"/>
		</g>
		<path class="st19" d="M372.78,300.05c0,0,0.38,1.37,0.42,1.87c0.04,0.45,0.46,0.95,1.2,0.69c0.08-0.03,0.16-0.07,0.25-0.11
			c1.62-0.89,19.11-11.09,20.39-11.81c1.42-0.8,1.21-3.23,1.42-4.31C390.31,289.91,372.78,300.05,372.78,300.05z"/>
		<path class="st19" d="M404.5,281.78c0,0,0.38,1.37,0.42,1.87c0.04,0.45,0.46,0.95,1.2,0.69c0.08-0.03,0.16-0.07,0.25-0.11
			c1.62-0.89,2.35-1.44,3.63-2.16c1.42-0.8,1.32-3.2,1.32-4.23C405.17,281.38,404.5,281.78,404.5,281.78z"/>
		<g>
			<path class="st5" d="M381.87,286.19l-0.28,0.12v-0.47l1-0.58l0.89,2.84l0,0l0.25-0.12v0.49l-1.13,0.65v-0.47l0.17-0.11
				c0.09-0.06,0.14-0.12,0.11-0.24L382.8,288l-1.02,0.59l-0.13,0.59l0.26-0.13v0.49l-1.01,0.58v-0.47l0.14-0.1
				c0.08-0.06,0.1-0.11,0.13-0.24L381.87,286.19z M381.88,287.99l0.81-0.47l-0.39-1.43l-0.01,0.01L381.88,287.99z"/>
			<path class="st5" d="M385.59,286.17L385.59,286.17l0.75-3.07l0.86-0.5v0.47l-0.14,0.1c-0.08,0.06-0.13,0.12-0.13,0.28l0.11,2.6
				l0.27-0.14v0.49l-1.05,0.61v-0.47l0.16-0.11c0.07-0.05,0.12-0.11,0.11-0.22l-0.08-2.01l-0.01,0.01l-0.67,2.71l-0.41,0.24
				l-0.66-1.92l-0.01,0.01l-0.09,2.21l0.28-0.15v0.49l-1.03,0.59v-0.47l0.16-0.11c0.06-0.04,0.11-0.12,0.11-0.22l0.12-2.77
				l-0.27,0.13v-0.49l0.88-0.51L385.59,286.17z"/>
			<path class="st5" d="M388.81,281.68c0.49-0.28,0.94-0.35,0.94,0.43c0,0.38-0.17,0.75-0.4,1.05c0.33-0.08,0.55,0.1,0.55,0.61
				c0,0.76-0.39,1.38-1.12,1.8l-1.23,0.71v-0.47l0.14-0.1c0.07-0.05,0.13-0.12,0.13-0.24v-2.71l-0.25,0.13v-0.49L388.81,281.68z
				 M388.36,283.53l0.32-0.19c0.38-0.22,0.53-0.54,0.53-0.85c0-0.42-0.21-0.39-0.5-0.22l-0.35,0.2V283.53z M388.36,285.26l0.41-0.24
				c0.43-0.25,0.57-0.59,0.57-0.94c0-0.39-0.2-0.48-0.55-0.29l-0.43,0.25V285.26z"/>
			<path class="st5" d="M390.91,283.08c0,0.57,0.22,0.61,0.57,0.41c0.35-0.2,0.57-0.56,0.57-1.04v-2.13l-0.25,0.13v-0.49l1.03-0.6
				v0.47l-0.14,0.1c-0.08,0.06-0.13,0.13-0.13,0.25v2.08c0,0.76-0.43,1.45-1.09,1.84c-0.72,0.41-1.08,0.24-1.08-0.67v-2.14
				l-0.25,0.13v-0.49l1.06-0.61v0.47l-0.14,0.1c-0.08,0.06-0.13,0.12-0.13,0.27V283.08z"/>
			<path class="st5" d="M393.05,283.1v-0.47l0.14-0.1c0.07-0.05,0.13-0.12,0.13-0.24v-2.71l-0.25,0.13v-0.49l1.05-0.61v0.47
				l-0.14,0.1c-0.07,0.06-0.13,0.12-0.13,0.26v2.6l0.72-0.42c0.09-0.05,0.1-0.13,0.1-0.24v-0.41l0.45-0.22v1.15L393.05,283.1z"/>
			<path class="st5" d="M396.26,277.89l-0.28,0.12v-0.47l1-0.58l0.89,2.84l0,0l0.25-0.13v0.49l-1.13,0.65v-0.47l0.17-0.11
				c0.09-0.06,0.14-0.12,0.11-0.24l-0.09-0.31l-1.02,0.59l-0.13,0.59l0.26-0.13v0.49l-1.01,0.58v-0.47l0.14-0.1
				c0.07-0.05,0.1-0.11,0.13-0.24L396.26,277.89z M396.26,279.69l0.81-0.47l-0.39-1.43l-0.01,0.01L396.26,279.69z"/>
			<path class="st5" d="M398.29,279.61l0.16-0.11c0.07-0.05,0.11-0.11,0.11-0.23v-2.71l-0.25,0.13v-0.49l0.79-0.45l1.23,1.96
				l0.01-0.01v-2.16l-0.29,0.15v-0.49l1.06-0.61v0.47l-0.16,0.11c-0.07,0.04-0.11,0.12-0.11,0.24v3.2l-0.51,0.29l-1.26-1.98
				l-0.01,0.01v2.2l0.28-0.15v0.49l-1.07,0.62V279.61z"/>
			<path class="st5" d="M402.77,274.13c-0.55,0.32-0.82,1-0.82,1.88c0,0.91,0.23,1.35,0.83,0.98c0.12-0.07,0.24-0.15,0.32-0.24
				c0.08-0.08,0.09-0.13,0.09-0.25v-0.47l0.44-0.22v1.01c-0.24,0.31-0.58,0.58-0.86,0.74c-0.89,0.51-1.37,0.13-1.37-1.2
				c0-1.52,0.7-2.43,1.37-2.82c0.26-0.15,0.56-0.25,0.82-0.24v0.99l-0.45,0.3v-0.45c0-0.11-0.01-0.15-0.09-0.14
				C402.97,274.02,402.86,274.08,402.77,274.13z"/>
			<path class="st5" d="M404,276.78v-0.47l0.14-0.1c0.07-0.06,0.13-0.12,0.13-0.24v-2.71l-0.25,0.13v-0.49l2-1.15v0.97l-0.45,0.3
				v-0.23c0-0.11-0.01-0.17-0.13-0.11l-0.65,0.37v1l1.01-0.58v0.59l-1.01,0.58v1.09l0.7-0.41c0.11-0.07,0.12-0.14,0.12-0.26v-0.29
				l0.45-0.22v1.04L404,276.78z"/>
		</g>
		<polygon class="st5" points="384.4,273.52 384.4,271.32 386.35,270.32 386.35,272.16 387.48,270.32 388.74,271.55 386.86,274.56 
			388.89,275.48 387.69,277.84 386.18,277.12 386.18,279.29 384.4,280.28 384.4,278.44 383.27,280.28 381.97,279.12 383.89,276.08 
			381.97,275.14 383.15,272.89 		"/>
		<g>
			<polygon class="st9" points="385.99,279.02 384.73,279.75 384.73,271.64 385.99,270.91 			"/>
			<polygon class="st9" points="383.21,279.76 382.4,279.04 387.5,270.91 388.31,271.63 			"/>
			<polygon class="st9" points="382.43,274.97 383.25,273.32 388.29,275.69 387.46,277.34 			"/>
			<polygon class="st5" points="385.56,278.65 385.16,278.88 385.16,272.02 385.56,271.79 			"/>
		</g>
		<polygon class="st6" points="339.29,286.59 360.21,298.67 363.28,294.58 342.31,282.48 		"/>
		<g>
			<polygon class="st5" points="352.85,261.75 372.12,272.87 375.68,270.8 356.41,259.68 			"/>
			<g>
				<path class="st6" d="M353.72,261.75v-1.69c0-0.56,0.34-1.21,0.76-1.45l1.17-0.68c0.42-0.24,0.76,0.02,0.76,0.57v1.69
					L353.72,261.75z"/>
				<polygon class="st6" points="354.93,258.58 373.41,269.25 374.61,268.56 356.13,257.89 				"/>
				<polygon class="st6" points="353.75,260.46 372.23,271.13 373.47,269.32 354.99,258.65 				"/>
				<polygon class="st20" points="354.37,258.67 372.85,269.33 374.04,268.64 355.56,257.98 				"/>
				<path class="st10" d="M372.12,272.37v-1.69c0-0.56,0.34-1.21,0.76-1.45l1.17-0.68c0.42-0.24,0.76,0.02,0.76,0.57v1.69
					L372.12,272.37z"/>
				<polygon class="st12" points="372.12,270.54 372.12,272.37 353.72,261.75 353.72,259.94 				"/>
			</g>
			<polygon class="st3" points="352.85,262.46 372.12,273.58 372.12,272.87 352.85,261.75 			"/>
			<polygon class="st2" points="375.68,270.8 375.68,271.51 372.12,273.58 372.12,272.87 			"/>
		</g>
	</g>
</g>
</svg>
