<?xml version="1.0" encoding="utf-8"?>
<!-- Generator: Adobe Illustrator 26.0.1, SVG Export Plug-In . SVG Version: 6.00 Build 0)  -->
<svg version="1.1" xmlns="http://www.w3.org/2000/svg" xmlns:xlink="http://www.w3.org/1999/xlink" x="0px" y="0px"
	 viewBox="0 0 500 500" style="enable-background:new 0 0 500 500;" xml:space="preserve">
<style type="text/css">
	.st0{display:none;}
	.st1{display:inline;fill:#D3E4E8;}
	.st2{fill:#6FB27D;}
	.st3{opacity:0.2157;fill:#6FB5A3;}
	.st4{opacity:0.3752;}
	.st5{fill:#6FB5A3;}
	.st6{opacity:0.2157;}
	.st7{fill:#293A28;}
	.st8{fill:#54935F;}
</style>
<g id="BACKGROUND" class="st0">
	<rect class="st1" width="500" height="500"/>
</g>
<g id="OBJECTS">
	<g>
		<g>
			<g>
				<g>
					<g>
						<path class="st2" d="M213.37,71.92c99.84-13.72,188.85,54.21,211.78,150.66c30.14,126.74-70.7,220.29-195.22,220.54
							c-76.41,0.15-143.65-43.05-167.52-116.77c-22.71-70.12-17.27-160.01,43.04-209.76c26.69-22.02,59.76-35.38,93.68-42.24
							C203.9,73.38,208.65,72.57,213.37,71.92z"/>
					</g>
					<path class="st3" d="M398.45,364.84c-29.84,14.76-64.55,22.94-101.27,23.01c-76.42,0.15-143.64-43.08-167.52-116.78
						c-18.62-57.49-18.28-128.31,15.74-179.36c-14.31,6.62-27.8,14.84-39.97,24.87c-60.31,49.76-65.74,139.65-43.01,209.77
						c23.84,73.71,91.11,116.93,167.52,116.78C299.97,443.01,362.53,413.34,398.45,364.84z"/>
					<path class="st3" d="M346.46,411.69c-26.86,11.9-57.17,18.26-89.06,17.94c-76.54-0.73-144.41-48.35-169.15-128.53
						c-16.5-53.34-19.29-117.05,1-168.77C44.32,183.8,41.9,263.09,62.42,326.35c23.84,73.71,91.11,116.93,167.52,116.78
						C273.14,443.06,313.48,431.73,346.46,411.69z"/>
					<g class="st4">
						<path class="st5" d="M372.85,265.04c-13.41,8.44-34.23,11.19-49,5.1c-18.95-7.81-33.21-26.82-33.86-47.31
							c-0.65-20.49,13.31-41,33.06-46.51c18.04-5.03,38.33,2.72,50.32,17.11c11.99,14.39,16.09,34.38,13.23,52.89
							C385.28,254.77,380.08,260.49,372.85,265.04z"/>
					</g>
					<g class="st4">
						<path class="st5" d="M294.52,175.9c-7.66,4.82-19.54,6.39-27.97,2.91c-10.82-4.46-18.96-15.31-19.33-27
							c-0.37-11.7,7.6-23.4,18.87-26.55c10.3-2.87,21.88,1.55,28.72,9.76c6.84,8.21,9.19,19.62,7.55,30.19
							C301.61,170.04,298.65,173.3,294.52,175.9z"/>
					</g>
					<g class="st6">
						<path class="st5" d="M350.54,315.07c2.9-3.31,5.6-8.84,3-12.8c-2.7-4.12-8.66-6.31-13.32-4.69
							c-5.63,1.95-8.25,9.05-8.66,14.55c-0.16,2.23,0.05,4.68,1.56,6.32c1.57,1.7,4.13,2.07,6.44,1.89
							C343.71,320.04,347.8,318.21,350.54,315.07z"/>
					</g>
					<g class="st6">
						<path class="st5" d="M191.97,224.21c2.9-3.31,5.6-8.84,3-12.8c-2.7-4.12-8.66-6.31-13.32-4.69
							c-5.63,1.95-8.25,9.05-8.66,14.55c-0.16,2.23,0.05,4.68,1.56,6.32c1.57,1.7,4.13,2.07,6.44,1.9
							C185.14,229.17,189.22,227.34,191.97,224.21z"/>
					</g>
					<g class="st6">
						<path class="st5" d="M273.6,240.69c-0.81-14.07-12.51-28.73-27.26-25.34c-6.9,1.58-12.5,6.83-14.8,13.42
							c-5.27,15.15,5.3,32.1,21.24,33.38C265.05,263.12,274.29,252.62,273.6,240.69z"/>
					</g>
					<g class="st6">
						<path class="st5" d="M181.35,147.89c0.13-13.25-9.82-26.38-23.74-22.25c-6.5,1.93-12.04,7.24-14.58,13.61
							c-5.85,14.65,2.92,30.01,17.65,30.22C172,169.63,181.24,159.13,181.35,147.89z"/>
					</g>
					<g class="st6">
						<path class="st5" d="M243.27,404.04c0.13-13.25-9.82-26.38-23.74-22.25c-6.5,1.93-12.04,7.24-14.58,13.61
							c-5.85,14.65,2.92,30.01,17.65,30.22C233.92,425.77,243.16,415.27,243.27,404.04z"/>
					</g>
					<g class="st6">
						<path class="st5" d="M302.95,360.76c8.12-9,12.6-21.02,9.49-33.82c-2.37-9.74-9.68-18.15-19-21.85
							c-8.2-3.26-17.38-2.94-26.12-1.7c-4.17,0.59-8.37,1.4-12.14,3.27c-8.32,4.12-13.43,12.9-15.93,21.84
							c-2.84,10.15-2.77,21.46,2.09,30.81C254.69,384.94,286.39,379.12,302.95,360.76z"/>
					</g>
					<g class="st6">
						<path class="st5" d="M144.36,245.22c8.12-9,12.6-21.02,9.49-33.82c-2.37-9.74-9.68-18.15-19-21.85
							c-8.2-3.26-17.38-2.94-26.12-1.7c-4.17,0.59-8.37,1.4-12.14,3.27c-8.32,4.12-13.43,12.9-15.93,21.84
							c-2.84,10.15-2.77,21.46,2.09,30.81C96.09,269.41,127.8,263.58,144.36,245.22z"/>
					</g>
					<g>
						<path class="st2" d="M33.02,305.47c2.51-2.42,4.84-5.11,7.93-6.7c8.43-4.34,33.97-1.96,38.29-2.32
							c5.26-0.44,10.52-0.85,15.75-1.54c1.61-0.21,3.29-0.46,4.62-1.4c2.24-1.59,2.78-4.63,3.15-7.35c0.13-0.96,0.25-1.97-0.12-2.86
							c-0.54-1.31-1.96-2-3.29-2.49c-8.76-3.24-17.96-2.35-27.07-1.77c-8.71,0.55-17.09-0.86-25.86-1
							c-4.66-0.08-9.56-1.03-13.06-4.1c-1.48-1.3-2.63-2.91-4.03-4.29c-3.81-3.77-9.68-5.61-14.77-3.92
							c-12.28,4.07-6.58,18.03-4.28,26.71c1.25,4.73,1.52,9.17,4.57,13.3c1.88,2.56,4.71,4.61,7.88,4.81
							c3.7,0.23,7.09-2.05,9.79-4.58C32.68,305.8,32.85,305.64,33.02,305.47z"/>
					</g>
					<g>
						<path class="st2" d="M138.3,459.15c-0.94-3.35-2.21-6.68-2.15-10.15c0.17-9.48,14.35-30.85,16.08-34.82
							c2.11-4.84,4.23-9.67,6.1-14.61c0.58-1.52,1.16-3.12,0.95-4.73c-0.34-2.72-2.76-4.64-4.98-6.25
							c-0.78-0.57-1.62-1.15-2.58-1.25c-1.41-0.15-2.69,0.78-3.75,1.72c-7.01,6.18-10.57,14.71-14.37,23.01
							c-3.64,7.94-8.84,14.65-13.13,22.31c-2.27,4.07-5.43,7.94-9.8,9.56c-1.84,0.69-3.81,0.94-5.69,1.52
							c-5.13,1.57-9.53,5.87-10.45,11.15c-2.22,12.74,12.77,14.33,21.5,16.42c4.76,1.13,8.8,3,13.88,2.28
							c3.15-0.45,6.29-1.96,7.96-4.67c1.95-3.15,1.55-7.21,0.6-10.8C138.43,459.6,138.37,459.38,138.3,459.15z"/>
					</g>
					<g>
						<path class="st2" d="M245.98,475.15c-2.31-2.61-4.9-5.05-6.35-8.21c-3.97-8.61-0.5-34.02-0.67-38.35
							c-0.21-5.27-0.4-10.55-0.87-15.81c-0.14-1.62-0.31-3.31-1.2-4.67c-1.5-2.3-4.5-2.98-7.21-3.46c-0.95-0.17-1.96-0.34-2.87-0.01
							c-1.33,0.48-2.08,1.87-2.63,3.18c-3.62,8.61-3.12,17.84-2.93,26.97c0.18,8.73-1.59,17.04-2.11,25.8
							c-0.28,4.65-1.44,9.51-4.66,12.87c-1.36,1.42-3.02,2.51-4.46,3.84c-3.93,3.65-6.02,9.43-4.55,14.59
							c3.54,12.44,17.73,7.35,26.5,5.42c4.78-1.05,9.23-1.13,13.49-3.99c2.64-1.77,4.81-4.51,5.14-7.67
							c0.39-3.69-1.74-7.17-4.16-9.98C246.29,475.51,246.13,475.33,245.98,475.15z"/>
					</g>
					<g>
						<path class="st2" d="M455.94,361.86c-3.46,0.44-6.93,1.21-10.36,0.64c-9.35-1.55-28.42-18.7-32.1-20.99
							c-4.48-2.79-8.95-5.59-13.56-8.17c-1.42-0.79-2.91-1.6-4.54-1.63c-2.75-0.06-5,2.05-6.91,4.02c-0.68,0.69-1.38,1.43-1.62,2.37
							c-0.35,1.37,0.38,2.77,1.15,3.96c5.09,7.83,13.01,12.6,20.66,17.58c7.32,4.76,13.2,10.89,20.15,16.24
							c3.69,2.84,7.06,6.53,8.03,11.09c0.41,1.92,0.38,3.91,0.67,5.85c0.81,5.3,4.42,10.28,9.51,11.97
							c12.28,4.06,16.04-10.54,19.38-18.87c1.82-4.54,4.25-8.27,4.28-13.4c0.01-3.18-1.02-6.51-3.45-8.56
							c-2.83-2.39-6.91-2.59-10.59-2.17C456.4,361.81,456.17,361.83,455.94,361.86z"/>
					</g>
					<g>
						<path class="st2" d="M471.1,269.67c-2.74,2.15-5.33,4.59-8.57,5.86c-8.82,3.46-33.99-1.49-38.32-1.58
							c-5.28-0.1-10.55-0.22-15.83-0.06c-1.63,0.05-3.32,0.12-4.74,0.92c-2.39,1.36-3.24,4.32-3.88,6.99
							c-0.23,0.94-0.45,1.93-0.17,2.86c0.4,1.36,1.75,2.19,3.02,2.81c8.39,4.12,17.63,4.16,26.75,4.51
							c8.72,0.33,16.91,2.58,25.63,3.62c4.63,0.55,9.41,1.99,12.58,5.41c1.34,1.44,2.33,3.16,3.57,4.68
							c3.41,4.14,9.06,6.56,14.3,5.4c12.63-2.81,8.38-17.27,6.97-26.14c-0.77-4.83-0.58-9.28-3.19-13.7
							c-1.62-2.74-4.22-5.07-7.35-5.58c-3.66-0.6-7.26,1.32-10.21,3.57C471.47,269.38,471.28,269.53,471.1,269.67z"/>
					</g>
					<g>
						<path class="st2" d="M25.14,180.01c3-1.77,5.89-3.84,9.27-4.67c9.21-2.25,33.49,6,37.77,6.66c5.22,0.8,10.43,1.62,15.68,2.17
							c1.62,0.17,3.31,0.32,4.82-0.29c2.55-1.03,3.78-3.85,4.77-6.41c0.35-0.9,0.7-1.86,0.55-2.81c-0.22-1.4-1.44-2.4-2.62-3.19
							c-7.76-5.2-16.92-6.47-25.91-8.02c-8.6-1.49-16.42-4.81-24.92-7c-4.51-1.16-9.06-3.23-11.75-7.03
							c-1.13-1.6-1.88-3.44-2.92-5.11c-2.83-4.55-8.11-7.71-13.45-7.25c-12.89,1.1-10.6,16-10.38,24.98c0.12,4.89-0.66,9.27,1.34,14
							c1.24,2.93,3.5,5.58,6.54,6.51c3.55,1.08,7.37-0.34,10.59-2.18C24.73,180.25,24.94,180.13,25.14,180.01z"/>
					</g>
					<g>
						<path class="st2" d="M64.25,120.58c3.47-0.3,6.97-0.93,10.38-0.22c9.28,1.93,27.65,19.83,31.23,22.27
							c4.36,2.97,8.72,5.95,13.22,8.71c1.39,0.85,2.85,1.72,4.47,1.82c2.74,0.17,5.07-1.85,7.07-3.74c0.7-0.66,1.43-1.37,1.71-2.3
							c0.41-1.36-0.27-2.79-0.99-4.01c-4.77-8.03-12.49-13.12-19.94-18.4c-7.12-5.05-12.75-11.41-19.48-17.04
							c-3.58-2.99-17.93-4.6-18.72-9.2c-0.33-1.94,10.92-6.13,10.71-8.08c-0.59-5.33-4-10.45-9.02-12.34
							c-12.11-4.55-16.45,9.88-20.12,18.08c-2,4.46-4.58,8.09-4.81,13.22c-0.14,3.17,0.76,6.55,3.11,8.69
							c2.74,2.5,6.8,2.86,10.5,2.59C63.78,120.62,64.01,120.6,64.25,120.58z"/>
					</g>
					<g>
						<path class="st2" d="M434.79,187.63c-1.75,3.01-3.26,6.23-5.8,8.6c-8.91,8.32-25.26,5.01-34.57,13.12
							c-5.51,4.8-4.08,12.5,3.69,14.67c7.98,2.22,23.46-4.27,31.27-6.34c4.51-1.2,9.48-1.62,13.69,0.39
							c1.77,0.84,3.33,2.08,5.05,3.03c4.69,2.59,10.85,2.76,15.28-0.25c10.7-7.27,1.42-19.14-3.16-26.86
							c-2.49-4.21-3.96-8.41-8.02-11.55c-2.51-1.95-5.79-3.15-8.89-2.48c-3.62,0.79-6.26,3.9-8.17,7.08
							C435.02,187.23,434.9,187.43,434.79,187.63z"/>
					</g>
					<g>
						<path class="st2" d="M323.92,73.35c0.65,3.42,1.63,6.84,1.27,10.3c-1.26,12.12-15.78,20.36-17.48,32.58
							c-1.01,7.24,5.12,12.11,12.41,8.65c7.48-3.56,14.9-18.62,19.44-25.3c2.62-3.86,6.09-7.44,10.58-8.69
							c1.89-0.53,3.88-0.61,5.8-1.02c5.24-1.13,9.99-5.03,11.37-10.22c3.31-12.5-11.49-15.37-20.01-18.2
							c-4.64-1.54-8.51-3.74-13.63-3.46c-3.17,0.18-6.44,1.42-8.34,3.97c-2.22,2.97-2.16,7.05-1.52,10.7
							C323.83,72.89,323.87,73.12,323.92,73.35z"/>
					</g>
					<g>
						<path class="st2" d="M152.62,58.7c2.91,1.91,6.05,3.6,8.28,6.26c7.82,9.35,3.64,25.5,11.22,35.23
							c4.49,5.76,12.26,4.76,14.85-2.89c2.65-7.85-2.99-23.66-4.64-31.57c-0.95-4.56-1.1-9.55,1.13-13.65
							c0.94-1.72,2.26-3.21,3.3-4.88c2.84-4.55,3.34-10.68,0.58-15.27c-6.67-11.08-19.04-2.45-27,1.7
							c-4.33,2.26-8.61,3.5-11.97,7.38c-2.08,2.4-3.46,5.61-2.96,8.74c0.59,3.66,3.56,6.46,6.63,8.54
							C152.23,58.44,152.42,58.57,152.62,58.7z"/>
					</g>
					<g>
						<path class="st2" d="M272.89,448.41c1.38-3.2,3.08-6.32,3.48-9.78c1.41-12.11-10.95-23.31-9.95-35.61
							c0.59-7.28,7.64-10.7,14-5.73c6.52,5.11,10.48,21.42,13.44,28.94c1.71,4.34,4.32,8.59,8.43,10.79
							c1.73,0.93,3.65,1.44,5.43,2.27c4.87,2.24,8.66,7.09,8.86,12.45c0.5,12.93-14.57,12.5-23.5,13.39
							c-4.86,0.49-9.12,1.8-14.06,0.4c-3.06-0.87-5.97-2.79-7.27-5.69c-1.51-3.39-0.57-7.35,0.85-10.78
							C272.7,448.84,272.79,448.62,272.89,448.41z"/>
					</g>
					<g>
						<path class="st2" d="M55.42,356.44c3.46,0.43,6.94,1.18,10.36,0.6c12.01-2.05,19.3-17.06,31.38-19.55
							c7.16-1.48,12.42,4.33,9.43,11.82c-3.07,7.69-17.62,16.08-23.99,21.03c-3.68,2.86-7.03,6.56-7.99,11.12
							c-0.4,1.92-0.36,3.91-0.65,5.85c-0.78,5.3-4.38,10.3-9.46,12c-12.27,4.11-16.09-10.47-19.46-18.79
							c-1.84-4.53-4.29-8.25-4.33-13.38c-0.03-3.18,1-6.52,3.42-8.57c2.82-2.4,6.9-2.61,10.58-2.21
							C54.96,356.39,55.19,356.42,55.42,356.44z"/>
					</g>
					<g>
						<path class="st2" d="M385.87,408.78c-3.33-1.02-6.81-1.76-9.7-3.69c-7.88-5.27-18.18-28.76-20.58-32.37
							c-2.93-4.39-5.85-8.79-8.98-13.03c-0.97-1.31-2-2.66-3.46-3.36c-2.48-1.18-5.4-0.19-7.95,0.81c-0.9,0.35-1.84,0.73-2.45,1.49
							c-0.89,1.11-0.8,2.68-0.59,4.09c1.41,9.23,6.65,16.85,11.57,24.54c4.71,7.35,7.53,15.36,11.66,23.11
							c2.19,4.11,3.74,8.86,2.74,13.41c-0.42,1.92-1.27,3.71-1.8,5.6c-1.45,5.16-0.22,11.19,3.73,14.82
							c9.51,8.77,18.96-2.98,25.44-9.2c3.53-3.39,7.28-5.78,9.42-10.44c1.32-2.89,1.75-6.35,0.39-9.22
							c-1.6-3.35-5.23-5.21-8.76-6.34C386.32,408.92,386.09,408.85,385.87,408.78z"/>
					</g>
					<g>
						<path class="st2" d="M407.75,106.96c-0.32,3.47-0.33,7.03-1.63,10.25c-3.55,8.79-24.45,23.66-27.49,26.76
							c-3.7,3.77-7.41,7.52-10.93,11.46c-1.08,1.21-2.2,2.5-2.58,4.07c-0.65,2.67,0.91,5.32,2.41,7.62c0.53,0.81,1.1,1.66,1.96,2.09
							c1.26,0.64,2.79,0.23,4.12-0.26c8.75-3.26,15.14-9.95,21.66-16.33c6.24-6.11,13.5-10.51,20.24-16.13
							c3.58-2.98,7.91-5.46,12.57-5.42c1.96,0.02,3.9,0.48,5.85,0.62c5.35,0.37,11-2.07,13.75-6.67
							c6.64-11.1-6.79-17.95-14.19-23.03c-4.03-2.76-7.14-5.95-12.15-7.09c-3.1-0.71-6.58-0.42-9.11,1.5
							c-2.95,2.24-4.03,6.18-4.42,9.87C407.79,106.5,407.77,106.73,407.75,106.96z"/>
					</g>
					<g>
						<path class="st2" d="M263.26,21.24c1.97,2.88,4.23,5.62,5.28,8.93c-14.37-45.29-7.8,81.47-4.11,38.14
							c-0.45,5.26-0.91,10.51-1.11,15.79c-0.06,1.62-0.1,3.32,0.61,4.79c1.2,2.47,4.1,3.52,6.72,4.33c0.92,0.29,1.9,0.58,2.84,0.36
							c1.38-0.31,2.3-1.6,3.01-2.83c4.66-8.09,5.31-17.31,6.26-26.39c0.91-8.68,3.7-16.71,5.3-25.33c0.85-4.58,2.61-9.26,6.23-12.19
							c1.52-1.24,3.31-2.11,4.9-3.26c4.35-3.13,7.15-8.61,6.33-13.91c-1.97-12.79-16.68-9.5-25.62-8.68
							c-4.87,0.45-9.3-0.03-13.88,2.28c-2.84,1.43-5.33,3.87-6.06,6.97c-0.84,3.61,0.84,7.33,2.89,10.42
							C263,20.85,263.13,21.04,263.26,21.24z"/>
					</g>
				</g>
				<g>
					<g>
						<path class="st7" d="M304.24,282.06c-0.73-0.49-1.4-1.12-1.96-1.86l-34.32-45.88c-4.76-6.36,1.39-10.03,7.53-8.99
							c11.34,1.91,19.17,17.88,25.44,26.26c4.74,6.33,9.47,12.66,14.21,18.99c2.66,3.55,1.93,8.58-1.62,11.24
							C310.71,283.91,306.99,283.9,304.24,282.06z"/>
					</g>
					<g>
						<path class="st7" d="M264.14,276.28c-0.73-0.49-1.4-1.12-1.96-1.86c-2.66-3.55-1.93-8.58,1.62-11.24
							c7.12-5.33,14.24-10.65,21.36-15.98c9.49-7.1,22.46-21.47,35.25-13.1c3.23,2.11,1.44,5.7-1.1,7.61
							c0,0-45.88,34.32-45.88,34.32C270.61,278.13,266.89,278.12,264.14,276.28z"/>
					</g>
				</g>
				<g>
					<g>
						<path class="st7" d="M180.02,265.95c-0.73-0.49-1.4-1.12-1.96-1.86c0,0-34.32-45.88-34.32-45.88
							c-1.15-1.54-1.78-3.56-1.57-5.49c0.27-2.5,2.35-3.17,4.68-3.35c1.07-0.08,2.13,0.08,3.19,0.23c2.09,0.31,4.2,0.63,6.23,1.23
							c4.1,1.21,5.8,5.06,8.26,8.36c2.51,3.35,5.02,6.71,7.52,10.06c4.83,6.46,9.67,12.92,14.5,19.38c1.46,1.95,2.91,3.89,4.37,5.84
							c2.66,3.55,1.93,8.58-1.62,11.24C186.5,267.8,182.78,267.79,180.02,265.95z"/>
					</g>
					<g>
						<path class="st7" d="M139.92,260.17c-0.73-0.49-1.4-1.12-1.96-1.86c-2.66-3.55-1.93-8.58,1.62-11.24
							c6.86-5.13,13.72-10.27,20.59-15.4c8.39-6.27,20.9-20.34,32.53-16.47c10.23,3.41,1.65,10.95-2.89,14.34
							c-5.34,4-10.69,8-16.03,11.99c-8.19,6.13-16.38,12.26-24.58,18.38C146.39,262.02,142.67,262.01,139.92,260.17z"/>
					</g>
				</g>
				<g>
					<path class="st7" d="M184.88,298.54c2.62-1.47,5.54-2.62,8.56-2.65c3.36-0.03,5.44,1.29,7.95,3.62
						c3.25,3.03,6.58,5.91,11.12,6.64c4.94,0.8,9.01-1.42,12.52-4.71c1.31-1.23,2.51-2.73,4.11-3.59c0.42-0.23,0.81-0.46,1.31-0.49
						c0.19-0.01,0.81,0.22,0.43,0.11c-0.32-0.09,0.45,0.54,0.08,0.09c1.39,1.68,2.67,4.65,4.24,6.88c5.2,7.38,14.84,6.67,20.8,0.54
						c2.34-2.4,4.4-6.17,8.31-5.25c4.76,1.11,5.04,8.3,9.86,9.01c1.39,0.21,2.62-0.33,3.08-1.75c0.77-2.33-0.58-4.65-1.78-6.6
						c-1.28-2.07-2.7-4.08-4.61-5.61c-3.71-2.97-8.92-3.64-13.23-1.62c-3.58,1.67-5.33,5.2-8.44,7.38
						c-2.49,1.74-5.36,1.48-6.78-0.92c-1.78-2.99-2.68-6.43-5.3-8.88c-3.69-3.45-8.88-3.38-13.14-1.04
						c-2.03,1.12-3.73,2.73-5.43,4.28c-1,0.92-2.27,2.24-3.65,2.3c-1.61,0.07-3.26-1.25-4.48-2.14c-1.79-1.31-3.41-2.84-5.22-4.12
						c-7.43-5.26-21.05-4.24-23.55,6C181.16,297.92,183.16,299.5,184.88,298.54L184.88,298.54z"/>
				</g>
			</g>
			<g>
				<g>
					<path class="st8" d="M375.63,258.71c0.12,2.94-0.15,5.79-0.35,8.72c-0.17,2.54-0.45,5.07-0.88,7.59
						c-0.98,5.72-2.32,11.26-2.78,17.06c-0.3,3.84,5.48,5.25,7.21,1.95c1.46-2.78,2.59-5.48,3.09-8.59
						c0.51-3.19,0.87-6.36,0.92-9.59c0.05-2.91-0.05-5.83-0.3-8.73c-0.26-3.09-0.91-6.1-1.44-9.15
						C380.56,254.87,375.51,255.6,375.63,258.71L375.63,258.71z"/>
				</g>
				<g>
					<path class="st8" d="M392,228.5c0.61,2.83,0.64,5.64,1.08,8.49c0.43,2.77,0.8,5.54,1.06,8.34c0.25,2.8,0.41,5.6,0.48,8.4
						c0.09,3.18,0.53,6.12,1.25,9.21c0.87,3.75,7.18,4.02,7.86,0c0.27-1.62,0.69-3.34,0.72-4.99c0.03-1.67-0.31-3.52-0.56-5.15
						c-0.43-2.88-0.99-5.74-1.63-8.57c-0.64-2.85-1.38-5.68-2.21-8.48c-0.87-2.92-2.37-5.65-3.48-8.5
						C395.49,224.42,391.34,225.46,392,228.5L392,228.5z"/>
				</g>
				<g>
					<path class="st8" d="M399.13,279.36c-0.47,1.64-1.32,3.03-1.79,4.67c-0.46,1.6-0.94,3.19-1.46,4.78
						c-0.97,2.96-1.89,5.95-2.92,8.89c-1.04,2.95-2.18,5.86-3.29,8.78c-1.19,3.14-2.12,6.24-3.07,9.47
						c-1.51,5.14,5.68,7.9,8.44,3.56c1.96-3.07,3.56-6.1,4.8-9.53c1.15-3.15,2.02-6.35,2.76-9.62c0.78-3.44,1.4-6.89,1.77-10.4
						c0.16-1.53,0.29-3.06,0.39-4.59c0.12-1.78-0.27-3.49-0.29-5.28C404.43,277.02,399.98,276.4,399.13,279.36L399.13,279.36z"/>
				</g>
				<g>
					<path class="st8" d="M371.31,311.11c-1.35,0.19-2.41,1.62-3.27,2.6c-0.88,1-1.45,2.23-2.1,3.39c-0.53,0.94-1.06,1.89-1.59,2.83
						c-0.43,0.78-0.9,1.55-1.18,2.4c-0.3,0.94-0.12,1.9-0.02,2.85c0.07,0.74,0.19,1.47,0.57,2.13c0.46,0.79,1.18,1.37,2.01,1.72
						c1.6,0.68,3.32,0.28,4.6-0.87c0.69-0.62,1.42-1.19,1.89-2.01c0.5-0.85,0.65-1.84,0.87-2.78c0.27-1.18,0.54-2.36,0.81-3.54
						c0.33-1.43,0.66-2.82,0.64-4.3c-0.01-0.75,0.06-1.57-0.12-2.3c-0.14-0.59-0.43-1.11-0.87-1.53
						C372.89,311.07,372.17,310.99,371.31,311.11L371.31,311.11z"/>
				</g>
				<g>
					<path class="st8" d="M383.67,332.52c-1.19,0.74-1.89,2.02-2.71,3.12c-0.57,0.76-0.91,1.52-1.28,2.4
						c-0.31,0.73,0.18-0.41-0.13,0.31c-0.13,0.29-0.25,0.58-0.38,0.87c-1.08,2.41-2.34,4.71-3.56,7.05
						c-1.19,2.29-2.35,4.57-3.64,6.81c-0.47,0.81-0.8,1.66-1.17,2.52c0.29-0.67-0.03,0.05-0.16,0.34c-0.13,0.3-0.26,0.59-0.4,0.89
						c-0.65,1.43-1.14,2.89-1.66,4.37c-0.56,1.6,0.37,3.55,1.78,4.37c1.59,0.93,3.34,0.49,4.69-0.61c4.7-3.83,7.73-9.14,9.87-14.77
						c0.94-2.46,1.66-5.03,2.3-7.58c0.38-1.49,0.85-3.07,0.8-4.62c-0.05-1.48-0.08-3.26-0.81-4.56
						C386.53,332.25,384.85,331.79,383.67,332.52L383.67,332.52z"/>
				</g>
				<g>
					<path class="st8" d="M361.17,338.86c-0.63,0.62-1.26,1.24-1.88,1.86c-0.79,0.78-1.39,1.66-2,2.58
						c-0.98,1.49-1.96,2.98-2.94,4.47c-0.58,0.89-0.7,2.25-0.42,3.24c0.27,0.98,1.02,2.04,1.94,2.52c0.98,0.52,2.16,0.78,3.24,0.42
						c0.97-0.31,2.1-0.96,2.52-1.94c0.7-1.65,1.41-3.3,2.11-4.95c0.17-0.4,0.34-0.8,0.51-1.2c0.2-0.46,0.41-0.89,0.51-1.38
						c0.03-0.18,0.07-0.35,0.1-0.53c0.17-0.88,0.34-1.77,0.52-2.66c0.21-1.06-0.13-2.29-1.15-2.84
						C363.22,337.94,361.99,338.05,361.17,338.86L361.17,338.86z"/>
				</g>
				<g>
					<path class="st8" d="M349.46,364.82c-1.18,1.42-2.37,2.84-3.55,4.26c-1.27,1.53-2.35,3.22-3.47,4.85
						c-1.04,1.51-2.08,3.01-3.11,4.52c-0.53,0.77-1.11,1.54-1.61,2.33c-0.75,1.21-0.75,2.36-0.65,3.7c0.12,1.63,1.71,3.38,3.53,2.69
						c1.38-0.52,2.63-0.95,3.49-2.26c0.52-0.78,0.96-1.63,1.43-2.44c0.92-1.57,1.85-3.15,2.77-4.72c0.92-1.57,1.94-3.11,2.71-4.75
						c0.8-1.71,1.61-3.42,2.41-5.14c0.53-1.13,0.41-2.45-0.65-3.24C351.83,363.93,350.27,363.85,349.46,364.82L349.46,364.82z"/>
				</g>
				<g>
					<path class="st8" d="M354.74,283.32c-0.96,6.27-2.37,12.69-4.34,18.72c-2.03,6.2-4.77,11.98-7.02,18.07
						c-0.77,2.1,0.69,4.59,2.63,5.37c2.26,0.91,4.28,0.01,5.68-1.86c4.22-5.62,6.5-12.56,7.75-19.42c0.63-3.45,1.09-6.96,1.28-10.47
						c0.19-3.45-0.36-7-0.87-10.41C359.47,280.79,355.12,280.79,354.74,283.32L354.74,283.32z"/>
				</g>
			</g>
		</g>
	</g>
</g>
</svg>
