<?xml version="1.0" encoding="utf-8"?>
<!-- Generator: Adobe Illustrator 26.0.1, SVG Export Plug-In . SVG Version: 6.00 Build 0)  -->
<svg version="1.1" id="Layer_1" xmlns="http://www.w3.org/2000/svg" xmlns:xlink="http://www.w3.org/1999/xlink" x="0px" y="0px"
	 viewBox="0 0 2000 2000" style="enable-background:new 0 0 2000 2000;" xml:space="preserve">
<style type="text/css">
	.st0{fill:#F2B98F;}
	.st1{fill:#FFEEE3;}
	.st2{fill:#FBCFA5;}
	.st3{fill:#F9E3D2;}
	.st4{fill:#FFFFFF;}
</style>
<g>
	<path class="st0" d="M1785.21,1258.69c-112.91-31-208.72-86.99-298.29-162.4c-0.45-0.38-0.9-0.76-1.35-1.13
		c12.83-72.78-13.6-149.23-47.98-215.89c-38.03-73.75-86.52-143.56-107.03-223.95c-12.06-47.27-14.5-98.2-39.05-140.36
		c-16.05-27.55-51.77-50.93-78.44-33.46c-14.46,9.47-20.36,27.6-23.33,44.62c-16.68,95.68,2.35,167-7.57,255.58
		c-52.06-17.68-92.19-43.64-229.72-153.47l0,0C854.6,523.71,756.76,419.21,658.93,314.7c-14.66-15.66-34.77-32.79-54.94-25.46
		c-15.15,5.51-22.62,23.65-21,39.69c1.62,16.04,10.21,30.43,18.77,44.09c46.77,74.59,53.96,173.83,106.28,244.63
		c22.6,30.58,91.6,36.27,118.62,65.55c-200.1-150.27-301.1-301.73-351.51-356.5c-20.28-22.03-50.64-24.59-65.4,6.73
		c-9.61,20.39,0.6,53.3,13.11,72.06c34.88,52.35,72.04,103.21,111.33,152.43c56.3,70.52,52.89,78.55,116.2,143.36
		c-0.74,0.64-12.39-2.91-42.86-34.32c-62.89-64.82-115.56-133.51-183.62-202.31c-19.5-19.71-43.1-38.62-64.69-21.24
		c-22.12,17.8-11.32,52.32-0.77,78.67c43.85,109.49,221.98,320.1,255.51,364.47c-1.37,2.42-2.74,4.83-4.05,7.27
		c-71.97-85.37-212.09-241.5-238.37-261.5c-7.76-5.9-16.69-11.72-26.4-10.88c-22.96,1.99-26.27,34.62-19.96,56.79
		c13.01,45.71,33.32,90.38,63.66,126.95c240.46,289.82,456.09,482.37,689.39,573.08c11.7,8.6,159.83,75.43,218.16,110.9
		c65.02,39.54,132.23,75.49,201.23,107.58c23.74,11.04,49.58,21.88,75.3,17.02c16.72-3.16,31.51-12.7,44.99-23.07
		C1718.61,1513.23,1766.17,1384.31,1785.21,1258.69z"/>
	<path class="st1" d="M966.15,551.67c28.8,14.11,46.4,50.03,35.96,80.35c25.79-20.4,56.97-38.14,89.67-34.69
		c32.7,3.46,63.1,37.14,52.01,68.1c34.87-30.85,95.57-25.12,124.05,11.71c28.49,36.83,18.78,97.01-19.84,123.01
		c32.38-5.77,67.12,18.25,73.15,50.59c6.03,32.33-17.71,67.26-49.99,73.56c22.87-15.7,53.66,9.02,62.07,35.46
		c16.45,51.73-11.62,110.3-56.16,141.33c-44.54,31.03-101.68,38.63-155.84,35.05c23.62,25.5,5.04,67.28-18.94,92.44
		c-66.89,70.18-173.2,100-266.83,74.85c8.07,12.91-6.12,28.39-19.67,35.33c-39.27,20.13-87.18,22.62-128.33,6.68
		c-23.25,26.73-57.15,43.19-92.24,48.1c-51.09,7.14-108.68-13.37-132.67-59.05c-23.98-45.68,0.62-113.52,51.38-122.72
		c-47.3-18.87-90.13-51.4-115.62-95.48c-25.5-44.08-31.99-100.14-11.55-146.78c20.44-46.64,69.53-80.91,120.39-78.36
		c-30.47-21.94-60.74-46.23-78.76-79.18c-18.02-32.95-21.12-76.63,1.69-106.46c20.37-26.65,55.46-36.41,88.04-44.41
		c-20.1-31.89-11.54-77.29,15.9-103.12c27.45-25.84,69.92-32.43,105.74-20.7c35.82,11.73,64.88,39.89,82.58,73.18
		c-9.02-16.97,33.48-42.03,44.79-44.36c31.09-6.4,42.46,23.43,67.82,24.74c22.7,1.17,34.87-26.29,54.98-36.54
		C913.28,542.38,942.23,539.95,966.15,551.67z"/>
	<path class="st2" d="M1399.32,918.07c-16.92-3.5-33.91,5.17-48.03,15.14c-79.35,56-116.22,119.95-185.77,175.69
		c-3.48-23.44-77.23-220.74-40.98-700.13c1.62-21.39-1.49-47.77-20.94-56.81c-14.62-6.8-32.71,0.78-42.89,13.29
		c-10.18,12.51-14.25,28.76-17.83,44.49c-19.52,85.84-32.46,173.03-45.38,260.11c-5.59,37.65-12.75,78.62-14.27,118.48
		c-35.7-247.77-0.29-426.37,2.67-500.77c1.19-29.92-18.51-53.16-51.08-41.39c-21.2,7.66-37.2,38.18-41.59,60.3
		c-12.24,61.7-21.83,123.96-28.74,186.56c-9.9,89.69-18.89,183.57-19.8,274.16c-0.98-0.07-1.96-0.14-2.94-0.2
		c-4.41-47.6-2.87-101.2-2.29-144.96c1.21-90.3,12.38-176.15,12.74-272.92c0.1-27.72-3.27-57.78-30.83-60.71
		c-28.23-3-44.95,29.07-56.08,55.19c-46.23,108.51-68.72,383.43-76.29,438.52c-2.68,0.74-5.35,1.49-8.01,2.29
		c-3.8-182.67,12.86-288.46,15.74-353.49c0.43-9.74-3.55-20.08-11.02-26.34c-17.67-14.8-43.05,5.98-54.23,26.14
		c-23.05,41.56-34.86,88.33-44.52,134.86c-22.55,108.65-25.4,403.43-23.32,425.8c0,0.07,0.01,0.13,0.01,0.2l0.01-0.01
		c14.64,157.57,52.21,306.88,137.94,456.24c2.22,14.35,29.13,176.57,45.41,242.87c18.15,73.91,86.27,268.75,107.92,283.46
		c14.07,9.57,31.28,13.25,48.16,15.42c126.02,16.19,307.19-43.17,352.87-117.1c-58.1-101.66-86.43-208.95-96.65-325.59
		c-0.05-0.59-0.11-1.17-0.16-1.76c60.46-42.5,95.71-115.3,118.41-186.79c25.12-79.08,40.05-162.76,82.27-234.19
		c24.82-42,59.05-79.79,71.41-126.99C1439.35,966.29,1430.55,924.52,1399.32,918.07z"/>
	<path class="st3" d="M1349.83,982.47c-5.92,10.24-10.39,21.76-9.94,33.59c0.45,11.82,6.64,23.92,17.35,28.95
		c11.86,5.56,26.48,1.29,36.5-7.13c10.03-8.43,16.41-20.3,22.35-31.97C1448.57,942.18,1379.49,931.17,1349.83,982.47z"/>
	<path class="st1" d="M953.02,95.56c0,41.29-33.47,74.76-74.75,74.76c-41.29,0-74.76-33.47-74.76-74.76
		c0-41.29,33.47-74.76,74.76-74.76C919.55,20.8,953.02,54.27,953.02,95.56z"/>
	<path class="st4" d="M848.61,42.56c-7.05,4.61-12.77,11.03-17.58,17.95c-5.22,7.52-9.57,16.13-9.61,25.28
		c-0.04,9.16,5.28,18.81,14.07,21.38c2.49,0.73,5.25,0.85,7.61-0.21c3.52-1.58,5.48-5.45,6.22-9.24c0.75-3.79,0.56-7.71,1.22-11.51
		c1.35-7.79,6.42-14.86,13.37-18.62c8.68-4.7,20.57-5.04,25.75-13.43c1.13-1.83,1.82-3.98,1.65-6.12
		C889.88,29.68,857.34,36.85,848.61,42.56z"/>
	<path class="st1" d="M1315.46,275.11c0,41.29-33.47,74.76-74.75,74.76c-41.29,0-74.76-33.47-74.76-74.76
		c0-41.29,33.47-74.76,74.76-74.76C1281.99,200.36,1315.46,233.83,1315.46,275.11z"/>
	<path class="st4" d="M1211.04,222.12c-7.05,4.61-12.77,11.03-17.58,17.95c-5.22,7.52-9.57,16.13-9.61,25.28
		c-0.04,9.16,5.28,18.81,14.07,21.38c2.49,0.73,5.25,0.85,7.61-0.21c3.52-1.59,5.47-5.45,6.22-9.24c0.75-3.79,0.56-7.71,1.22-11.51
		c1.35-7.79,6.42-14.85,13.37-18.62c8.68-4.7,20.57-5.04,25.75-13.43c1.13-1.83,1.82-3.98,1.66-6.12
		C1252.31,209.23,1219.77,216.41,1211.04,222.12z"/>
	<path class="st1" d="M1541.23,185.55c0,24.25-19.66,43.92-43.92,43.92c-24.25,0-43.91-19.66-43.91-43.92
		c0-24.25,19.66-43.91,43.91-43.91C1521.57,141.64,1541.23,161.3,1541.23,185.55z"/>
	<path class="st4" d="M1479.89,154.42c-4.14,2.71-7.5,6.48-10.33,10.54c-3.07,4.42-5.62,9.47-5.64,14.85
		c-0.02,5.38,3.1,11.05,8.27,12.56c1.46,0.43,3.09,0.5,4.47-0.13c2.07-0.93,3.22-3.2,3.66-5.43c0.44-2.22,0.33-4.53,0.71-6.76
		c0.79-4.58,3.77-8.73,7.85-10.94c5.1-2.76,12.08-2.96,15.13-7.89c0.66-1.07,1.07-2.34,0.97-3.6
		C1504.13,146.85,1485.02,151.07,1479.89,154.42z"/>
	<path class="st3" d="M1057.04,380.08c-1.97,6.8-1.97,13.99-1.94,21.08c0.02,6.19,0.04,12.38,0.06,18.58
		c0.02,5.21,0.41,11.21,4.6,14.3c2.8,2.07,6.53,2.19,10.01,2.23c5.17,0.06,10.67,0.03,15.04-2.75c4.61-2.93,6.98-8.3,8.85-13.44
		c3.71-10.21,6.45-20.76,8.19-31.48c1.03-6.34,1.55-13.39-2.14-18.64c-3.01-4.29-8.33-6.48-13.55-6.9
		C1072.33,361.93,1061.15,365.92,1057.04,380.08z"/>
	<path class="st3" d="M900.82,294.56c-2.42,8.16-3.72,16.93-1.63,25.19c2.09,8.26,8.09,15.89,16.32,18.08
		c8.27,2.21,17.26-1.43,23.42-7.38c6.16-5.94,9.96-13.88,13.19-21.81c3.95-9.73,7.23-19.73,9.81-29.92
		c1.65-6.52,2.78-14.16-1.5-19.34C938.97,233.41,906.16,276.55,900.82,294.56z"/>
	<path class="st3" d="M767.87,362.92c-0.51,5.67-0.09,12.25,4.4,15.75c1.71,1.33,3.83,2.03,5.95,2.43
		c11.59,2.17,23.42-4.45,30.69-13.73c7.27-9.28,10.84-20.85,14.07-32.18c5.44-19.08-4.93-47.84-27.39-30.11
		C779.21,317.99,769.67,342.81,767.87,362.92z"/>
	<path class="st3" d="M627.31,451.01c-2.85,6.42-5.35,13.84-2.55,20.27c3.34,7.67,13.5,10.6,21.42,7.93s13.74-9.59,17.62-16.99
		c3.89-7.41,6.26-15.51,9.86-23.07c1.96-4.12,4.3-8.11,5.52-12.51c5.34-19.32-11.8-19.32-22.92-11.61
		C642.82,424.36,633.94,436.09,627.31,451.01z"/>
	<path class="st0" d="M621.42,839.27c-0.65-6.1-1.37-12.4-4.48-17.68c-3.11-5.28-9.32-9.26-15.28-7.81l-4.83,1.53
		c-15.78,20.82-14.59,52.74,2.7,72.33c1.59,1.8,3.6,3.63,5.99,3.5c1.47-0.08,2.79-0.89,3.96-1.77
		C623.86,878.51,623.34,857.16,621.42,839.27z"/>
	<path class="st0" d="M753.06,806.66c-0.65-6.1-1.37-12.4-4.48-17.68c-3.11-5.28-9.32-9.26-15.28-7.81l-4.83,1.53
		c-15.78,20.82-14.58,52.74,2.71,72.33c1.59,1.8,3.6,3.63,5.99,3.5c1.47-0.08,2.79-0.89,3.97-1.77
		C755.49,845.91,754.97,824.56,753.06,806.66z"/>
	<path class="st0" d="M910.05,781.3c-0.65-6.1-1.37-12.4-4.48-17.68c-3.11-5.28-9.32-9.26-15.28-7.81l-4.83,1.53
		c-15.78,20.83-14.59,52.74,2.7,72.33c1.59,1.8,3.6,3.63,5.99,3.5c1.47-0.08,2.79-0.89,3.96-1.78
		C912.49,820.55,911.96,799.2,910.05,781.3z"/>
	<path class="st0" d="M1034.28,781.3c-0.65-6.1-1.37-12.4-4.48-17.68c-3.11-5.28-9.32-9.26-15.28-7.81l-4.83,1.53
		c-15.78,20.83-14.59,52.74,2.7,72.33c1.59,1.8,3.6,3.63,6,3.5c1.47-0.08,2.79-0.89,3.96-1.78
		C1036.72,820.55,1036.2,799.2,1034.28,781.3z"/>
	<path class="st4" d="M448.27,956.52c-20.04,12.4-36.12,32.74-39.01,56.12c-2.89,23.39,9.78,49.05,31.88,57.24
		c5.73,2.12,12.18,3.04,17.92,0.93c14.97-5.5,16.08-25.9,24.2-39.62c10.83-18.28,35.91-25.9,43.32-45.82
		C545.18,935.36,471.89,941.9,448.27,956.52z"/>
	<path class="st4" d="M551.57,1239.66c-11.14-5.85-25.35-3.15-35.64,4.1c-10.29,7.24-17.24,18.32-22.63,29.69
		c-6.36,13.41-10.98,28.73-6.86,42.99c4.13,14.26,19.99,25.78,33.88,20.56c-8.82-19.04,1.82-44.53,21.55-51.66
		c13.26-4.79,31.5-4.09,36.87-17.12c2.92-7.08-0.09-15.64-5.76-20.79c-5.67-5.15-13.46-7.37-21.1-8.04L551.57,1239.66z"/>
	<path class="st4" d="M528.2,694.99c-33.26-3.62-67.94,11.7-87.65,38.74c-8.41,11.53-13.07,29.96-1.56,38.38
		c9.63,7.03,23.54,1.25,32.03-7.12c8.49-8.37,14.81-19.31,25.24-25.08c6.95-3.85,15.01-4.99,22.64-7.19
		c7.63-2.2,15.46-6.01,19.14-13.05c3.68-7.04,0.75-17.68-7.02-19.35L528.2,694.99z"/>
	<path class="st4" d="M1165.11,901.13c-7.39-15.27-0.66-34.7,12.3-45.65c12.96-10.96,30.63-14.74,47.6-14.96
		c5.14-0.07,11.01,0.52,14.05,4.66c5.52,7.51-3.92,17.63-13.08,19.38c-9.16,1.75-19.51,0.09-27.07,5.54
		c-8.45,6.09-9.4,18.04-13.71,27.53c-4.3,9.49-18.67,16.6-24.23,7.79L1165.11,901.13z"/>
</g>
</svg>
